<svg xmlns="http://www.w3.org/2000/svg" width="300" height="60"><g fill="#A5A5A5"><path d="M4.509 22.563c-.717 0-1.288-.183-1.708-.546-.42-.366-.631-.957-.631-1.774V13.52h1.411v6.479c0 .47.095.774.287.912.193.136.455.202.789.202h.335v1.449h-.483z"/><path d="M4.547 21.244c0-.047.051-.082.148-.101.098-.019.199-.028.297-.028h1.655c.035 0 .073-.006.111-.019-.284-.259-.499-.54-.641-.843s-.215-.654-.215-1.051c0-.309.063-.603.186-.881s.29-.521.502-.723c.212-.205.452-.369.723-.493.275-.123.559-.186.856-.186.272 0 .546.047.827.139.278.095.527.246.751.455l-.742-.799 1.058-.985 2.599 2.826c.597.631.894 1.31.894 2.043 0 .309-.06.616-.177.919-.12.303-.281.571-.493.808-.212.234-.455.423-.733.565-.281.142-.575.215-.884.215-.373 0-.824-.095-1.355-.281-.534-.183-1.064-.42-1.598-.704-.335.136-.673.243-1.014.325-.341.079-.669.12-.991.12h-1.32c-.098 0-.199-.009-.297-.028-.098-.019-.148-.051-.148-.101v-1.192zm5.665-3.249c0 .013.013.032.038.057.136.174.23.369.287.594.054.224.082.458.082.704 0 .335-.057.66-.177.976-.117.316-.3.575-.546.77l-.148.148c.246.114.493.212.733.3.243.085.461.129.66.129.284 0 .527-.095.723-.278.199-.186.297-.417.297-.688 0-.212-.066-.433-.202-.669-.136-.234-.328-.489-.578-.761l-1.169-1.282zM7.241 19.22c.013.36.12.638.325.837.202.199.448.373.733.521.025-.025.051-.044.076-.057.022-.013.041-.025.054-.038.272-.148.486-.335.641-.556.155-.224.234-.458.234-.707 0-.234-.101-.467-.297-.695-.199-.23-.448-.344-.745-.344-.322 0-.571.101-.751.306-.182.205-.27.448-.27.733zm18.499 3.343c-.287 0-.53-.06-.736-.177-.202-.117-.373-.262-.508-.436v.373c0 .445-.073.884-.215 1.317-.142.433-.357.821-.641 1.162-.284.341-.654.616-1.105.827-.452.208-.982.316-1.588.316H19.33c-.568 0-1.074-.066-1.512-.196-.439-.129-.811-.338-1.115-.622-.303-.284-.534-.66-.688-1.124-.155-.464-.23-1.026-.23-1.68v-2.936h1.449v2.936c0 .704.189 1.244.575 1.613.385.373.941.559 1.67.559h1.358c.742 0 1.298-.186 1.661-.559.366-.369.549-.909.549-1.613V13.52h1.449v7.019c.06.174.202.313.426.417.221.107.496.158.818.158h.148v1.449h-.148z"/><path d="M30.05 22.563c-.373 0-.657-.038-.856-.111-.199-.076-.388-.218-.575-.429-.186.212-.382.354-.587.429-.202.073-.489.111-.862.111h-1.282c-.098 0-.199-.009-.297-.028-.098-.019-.148-.051-.148-.101v-1.19c0-.047.051-.082.148-.101.098-.019.199-.028.297-.028h1.115c.284 0 .502-.076.65-.23.148-.155.221-.429.221-.827v-1.913h1.468v1.913c0 .398.079.673.234.827.155.155.373.23.657.23h.038v1.449h-.221zm-4.181-6.741c0-.259.092-.483.268-.669.18-.186.407-.278.679-.278.249 0 .461.092.641.278.18.186.268.41.268.669 0 .246-.088.461-.268.641s-.392.268-.641.268c-.272 0-.499-.088-.679-.268-.176-.18-.268-.395-.268-.641zm2.526 0c0-.259.092-.483.268-.669.18-.186.401-.278.66-.278.262 0 .48.092.66.278.18.186.268.41.268.669 0 .246-.088.461-.268.641s-.398.268-.66.268c-.259 0-.48-.088-.66-.268-.176-.18-.268-.395-.268-.641z"/><path d="M29.826 21.244c0-.047.051-.082.148-.101.098-.019.199-.028.297-.028h1.655c.035 0 .073-.006.111-.019-.284-.259-.499-.54-.641-.843-.142-.303-.215-.654-.215-1.051 0-.309.063-.603.186-.881s.29-.521.502-.723c.212-.205.452-.369.723-.493.275-.123.559-.186.856-.186.272 0 .546.047.827.139.278.095.527.246.751.455l-.742-.799 1.058-.985 2.599 2.826c.597.631.894 1.31.894 2.043 0 .309-.06.616-.177.919-.12.303-.281.571-.493.808-.212.234-.455.423-.733.565-.281.142-.575.215-.884.215-.373 0-.824-.095-1.355-.281-.534-.183-1.064-.42-1.598-.704-.335.136-.673.243-1.014.325-.341.079-.669.12-.991.12h-1.32c-.098 0-.199-.009-.297-.028-.098-.019-.148-.051-.148-.101v-1.192zm5.664-3.249c0 .013.013.032.038.057.136.174.23.369.287.594.054.224.082.458.082.704 0 .335-.057.66-.177.976-.117.316-.3.575-.546.77l-.148.148c.246.114.493.212.733.3.243.085.461.129.66.129.284 0 .527-.095.723-.278.199-.186.297-.417.297-.688 0-.212-.066-.433-.202-.669-.136-.234-.328-.489-.578-.761l-1.169-1.282zm-2.971 1.225c.013.36.12.638.325.837.202.199.448.373.733.521.025-.025.051-.044.076-.057.022-.013.041-.025.054-.038.272-.148.486-.335.641-.556.155-.224.234-.458.234-.707 0-.234-.101-.467-.297-.695-.199-.23-.448-.344-.745-.344-.322 0-.571.101-.751.306-.182.205-.27.448-.27.733zm16.343-1.207h1.449v4.31c0 .445-.069.884-.215 1.317-.142.433-.354.821-.638 1.162-.287.341-.654.616-1.105.827-.455.208-.982.316-1.588.316h-2.157c-.568 0-1.074-.066-1.512-.196-.439-.129-.811-.338-1.115-.622-.303-.284-.534-.66-.688-1.124-.155-.464-.23-1.026-.23-1.68v-2.936h1.449v2.936c0 .704.189 1.244.575 1.613.385.373.941.559 1.67.559h1.876c.745 0 1.301-.186 1.673-.559.369-.369.556-.909.556-1.613v-4.31z"/><path d="M44.498 17.938c0-.297.104-.549.316-.761.212-.208.47-.316.78-.316.297 0 .553.107.761.316.212.212.316.464.316.761 0 .3-.104.556-.316.774-.208.215-.464.325-.761.322-.309.003-.568-.107-.78-.322-.211-.219-.316-.474-.316-.774zm13.018 4.625c-.038.445-.145.884-.325 1.32-.18.433-.42.815-.723 1.149-.303.335-.669.606-1.096.808-.426.205-.9.306-1.421.306H52.13l-.202-1.411h1.894c.691 0 1.244-.196 1.651-.584.41-.392.613-.919.613-1.588-.606 0-1.13-.035-1.579-.101-.445-.069-.811-.199-1.105-.392-.29-.193-.505-.461-.647-.808-.145-.344-.215-.805-.215-1.373 0-.954.186-1.692.556-2.22.373-.524.998-.789 1.876-.789.534 0 .966.085 1.301.253.335.167.594.392.78.676.186.287.313.616.382.995.066.379.101.777.101 1.197v1.134h.707v1.43h-.727zm-1.43-2.86c0-.928-.369-1.392-1.115-1.392-.382 0-.657.129-.824.392-.167.259-.253.518-.253.78v.426c0 .246.035.452.104.613.066.161.183.287.35.382.167.092.392.155.669.183.278.032.635.047 1.067.047v-1.431z"/><path d="M62.404 22.563c-.373 0-.657-.038-.856-.111-.199-.076-.388-.218-.575-.429-.186.212-.382.354-.587.429-.202.073-.489.111-.862.111h-1.282c-.098 0-.199-.009-.297-.028-.098-.019-.148-.051-.148-.101v-1.19c0-.047.051-.082.148-.101.098-.019.199-.028.297-.028h1.115c.284 0 .502-.076.65-.23.148-.155.221-.429.221-.827v-1.913h1.468v1.913c0 .398.079.673.234.827.155.155.373.23.657.23h.038v1.449h-.221zm-4.105 2.435c0-.249.088-.461.268-.641s.398-.272.66-.272c.259 0 .48.092.66.272.177.18.268.392.268.641 0 .259-.092.483-.268.666-.18.186-.401.281-.66.281-.262 0-.48-.095-.66-.281-.179-.183-.268-.407-.268-.666zm2.378 0c0-.249.088-.461.268-.641s.404-.272.679-.272c.246 0 .461.092.638.272.18.18.272.392.272.641 0 .259-.092.483-.272.666-.177.186-.392.281-.638.281-.275 0-.499-.095-.679-.281-.18-.183-.268-.407-.268-.666z"/><path d="M62.18 21.244c0-.047.051-.082.148-.101.098-.019.199-.028.297-.028h1.32c.272 0 .499-.069.685-.212s.278-.395.278-.755v-2.172h1.43v2.172c0 .347.123.597.363.745.243.148.499.221.77.221.284 0 .534-.069.742-.212.212-.142.316-.395.316-.755v-2.172h1.449v2.172c0 .347.123.597.363.745.24.148.505.221.789.221.272 0 .518-.069.733-.212.218-.142.325-.395.325-.755v-2.172h1.449v2.172c0 .783-.205 1.38-.613 1.793-.407.414-.998.622-1.765.622-.36 0-.682-.079-.966-.24-.284-.161-.518-.385-.704-.669-.385.606-1.042.909-1.97.909-.357 0-.679-.079-.966-.24-.284-.161-.512-.385-.685-.669-.398.606-1.064.909-2.005.909h-1.339c-.098 0-.199-.009-.297-.028-.098-.019-.148-.051-.148-.101v-1.188zm13.687 1.319V13.52h1.355v9.043h-1.355zm8.579-.296c0 .47-.082.938-.249 1.402-.167.464-.407.878-.717 1.244s-.682.663-1.124.89c-.439.23-.938.344-1.493.344h-1.822l-.202-1.411h1.894c.691 0 1.244-.186 1.651-.556.41-.373.613-.894.613-1.56-.606 0-1.13-.038-1.579-.114-.445-.073-.811-.208-1.105-.407-.29-.199-.505-.474-.647-.827-.145-.35-.215-.815-.215-1.383 0-.954.186-1.692.556-2.22.373-.524.998-.789 1.876-.789.534 0 .966.085 1.301.253.335.167.594.392.78.676.186.287.313.616.382.995.066.379.101.777.101 1.197v2.266zm-1.449-2.564c0-.928-.369-1.392-1.115-1.392-.382 0-.657.129-.824.392-.167.259-.253.518-.253.78v.426c0 .47.155.802.464.995.309.189.887.287 1.727.287v-1.488zm2.396 4.979c.865 0 1.512-.18 1.942-.54.426-.36.638-.856.638-1.487v-4.512h1.487v4.162c0 .543-.082 1.051-.249 1.522-.167.47-.404.878-.707 1.225-.303.347-.676.616-1.115.808s-.931.287-1.475.287l-.631-.019-.243-1.446h.353zm7.484-9.138c0-.297.104-.549.316-.761.212-.212.47-.316.78-.316.297 0 .553.104.761.316.212.212.316.464.316.761s-.104.556-.316.77c-.208.218-.464.325-.761.325-.309 0-.568-.107-.78-.325-.212-.214-.316-.473-.316-.77zm-2.283 9.138c.865 0 1.512-.18 1.942-.54.426-.36.638-.856.638-1.487v-4.512h1.487v4.162c0 .543-.082 1.051-.249 1.522-.167.47-.404.878-.707 1.225s-.676.616-1.115.808c-.439.193-.931.287-1.475.287l-.631-.019-.243-1.446h.353zm5.2 0c.865 0 1.512-.18 1.942-.54.426-.36.638-.856.638-1.487v-4.512h1.487v4.162c0 .543-.082 1.051-.249 1.522-.167.47-.404.878-.707 1.225s-.676.616-1.115.808c-.439.193-.931.287-1.475.287l-.631-.019-.243-1.446h.353zm9.955-2.119c-.597 0-1.02.117-1.272.354-.256.234-.382.496-.382.78 0 .284.114.515.344.688.227.171.641.259 1.235.259h7.837l.262 1.449h-8.023c-.559 0-1.029-.066-1.415-.196-.382-.129-.691-.303-.928-.521-.234-.215-.404-.47-.508-.761-.107-.29-.158-.597-.158-.919s.06-.638.183-.947c.126-.309.313-.584.568-.827.253-.24.565-.436.938-.584.373-.148.805-.224 1.301-.224h.647v1.449h-.629z"/><path d="M106.378 22.563c-.098 0-.199-.009-.297-.028-.098-.019-.148-.051-.148-.101v-1.19c0-.047.051-.082.148-.101.098-.019.199-.028.297-.028h1.857v1.449h-1.857z"/><path d="M112.263 22.563c-.284 0-.527-.038-.733-.111-.205-.076-.392-.218-.565-.429-.212.287-.436.448-.669.483-.237.038-.483.057-.742.057h-1.32c-.098 0-.199-.009-.297-.028-.098-.019-.148-.051-.148-.101v-1.19c0-.047.051-.082.148-.101.098-.019.199-.028.297-.028h.928c.36 0 .59-.079.698-.24.104-.161.158-.379.158-.65V13.52h1.43v6.703c0 .347.082.581.249.704.167.126.357.186.565.186h.65v1.449h-.649z"/><path d="M112.468 21.244c0-.047.051-.082.148-.101.098-.019.199-.028.297-.028h.167c.246 0 .436-.022.565-.073.133-.051.227-.123.29-.224.06-.098.098-.221.111-.369.013-.148.019-.322.019-.521 0-.385.044-.761.139-1.134.092-.373.234-.701.426-.995.193-.29.442-.521.751-.695.309-.174.682-.262 1.115-.262.385 0 .733.082 1.042.243.309.161.568.382.78.66.208.278.373.606.493.982.117.379.174.78.174 1.2 0 .928-.23 1.636-.695 2.125-.464.489-1.061.736-1.793.736-.382 0-.748-.095-1.096-.281-.347-.183-.625-.439-.834-.761-.114.249-.275.448-.483.597-.212.148-.546.221-1.004.221h-.167c-.098 0-.199-.009-.297-.028-.098-.019-.148-.051-.148-.101v-1.191zm5.239-1.412c0-.518-.111-.906-.325-1.159-.218-.256-.512-.382-.884-.382-.369 0-.666.126-.89.382-.224.253-.335.641-.335 1.159 0 .521.111.906.335 1.152.224.249.521.373.89.373.373 0 .666-.123.884-.373.214-.246.325-.631.325-1.152zm8.392 2.731c-.275 0-.502-.057-.688-.167-.186-.111-.347-.265-.483-.464v.373c0 .543-.082 1.051-.249 1.522-.167.47-.404.878-.707 1.225-.303.347-.676.619-1.115.818s-.931.29-1.475.278l-1.152-.019-.259-1.446h.89c.865 0 1.512-.18 1.942-.54.426-.36.638-.856.638-1.487v-4.512h1.487v2.305c.063.208.186.373.373.489.186.12.452.177.799.177h.388v1.449h-.389zm-2.955-7.019c0-.297.107-.553.316-.761.212-.212.47-.316.78-.316.3 0 .553.104.764.316.208.208.316.464.316.761s-.107.553-.316.77c-.212.215-.464.325-.764.325-.309 0-.568-.111-.78-.325-.209-.217-.316-.473-.316-.77z"/><path d="M126.042 21.244c0-.047.051-.082.148-.101.098-.019.199-.028.297-.028h8.989c.594 0 1.036-.114 1.326-.344.294-.227.439-.483.439-.77 0-.284-.145-.543-.439-.78-.29-.234-.733-.35-1.326-.35h-8.023l-.966-1.746 4.774-4.774 1.039 1.02-4.067 4.07h7.243c.534 0 .998.073 1.392.221.398.148.726.344.995.587.265.24.467.515.603.824.136.309.205.619.205.928 0 .322-.069.638-.205.947-.136.309-.338.587-.603.827-.268.243-.597.433-.995.575-.395.145-.859.215-1.392.215h-8.989c-.098 0-.199-.009-.297-.028-.098-.019-.148-.051-.148-.101v-1.192zm17.887 1.319c-.275 0-.502-.057-.688-.167-.186-.111-.347-.265-.483-.464v.373c0 .543-.082 1.051-.249 1.522-.167.47-.404.878-.707 1.225s-.676.619-1.115.818c-.439.199-.931.29-1.475.278l-1.152-.019-.259-1.446h.89c.865 0 1.512-.18 1.942-.54.426-.36.638-.856.638-1.487v-4.512h1.487v2.305c.063.208.186.373.373.489.186.12.452.177.799.177h.388v1.449h-.389z"/><path d="M143.872 21.244c0-.047.051-.082.148-.101.098-.019.199-.028.297-.028h.167c.246 0 .436-.022.565-.073.133-.051.227-.123.29-.224.06-.098.098-.221.111-.369.013-.148.019-.322.019-.521 0-.385.044-.761.139-1.134.092-.373.234-.701.426-.995.193-.29.442-.521.751-.695s.682-.262 1.115-.262c.385 0 .733.082 1.042.243.309.161.568.382.78.66.208.278.373.606.493.982.117.379.174.78.174 1.2 0 .928-.23 1.636-.695 2.125-.464.489-1.061.736-1.793.736-.382 0-.748-.095-1.096-.281-.347-.183-.625-.439-.834-.761-.114.249-.275.448-.483.597-.212.148-.546.221-1.004.221h-.167c-.098 0-.199-.009-.297-.028-.098-.019-.148-.051-.148-.101v-1.191zm5.238-1.412c0-.518-.111-.906-.325-1.159-.218-.256-.512-.382-.884-.382-.369 0-.666.126-.89.382-.224.253-.335.641-.335 1.159 0 .521.111.906.335 1.152.224.249.521.373.89.373.373 0 .666-.123.884-.373.215-.246.325-.631.325-1.152zM1.701 46.977c.865 0 1.512-.18 1.942-.54.426-.36.638-.856.638-1.487v-4.512h1.487v4.161c0 .543-.082 1.051-.249 1.522s-.404.878-.707 1.225c-.303.347-.676.619-1.115.818-.439.199-.931.29-1.475.278l-1.152-.019-.259-1.446h.89zm11.272-2.119c-.038.445-.145.884-.325 1.32-.18.433-.42.815-.723 1.149-.303.335-.669.606-1.096.808-.426.205-.9.306-1.421.306H7.587l-.202-1.411h1.894c.691 0 1.244-.196 1.651-.584.41-.392.613-.919.613-1.588-.606 0-1.13-.035-1.579-.101-.445-.069-.811-.199-1.105-.392-.29-.193-.505-.461-.647-.808-.145-.344-.215-.805-.215-1.373 0-.954.186-1.692.556-2.22.373-.524.998-.789 1.876-.789.534 0 .966.085 1.301.253s.594.392.78.676c.186.287.313.616.382.995.066.379.101.777.101 1.197v1.134h.707v1.43h-.727zm-1.43-2.86c0-.928-.369-1.392-1.115-1.392-.382 0-.657.129-.824.392-.167.259-.253.518-.253.78v.426c0 .246.035.452.104.613.066.161.183.287.35.382.167.092.392.155.669.183.278.032.635.047 1.067.047v-1.431z"/><path d="M28.534 44.858c-.297 0-.581-.079-.853-.24-.275-.161-.502-.379-.688-.65-.407.594-1.07.89-1.986.89-.36 0-.679-.079-.957-.24-.281-.161-.512-.385-.698-.669-.395.606-1.058.909-1.986.909-.36 0-.682-.079-.966-.24-.284-.161-.515-.385-.688-.669-.395.606-1.058.909-1.986.909H13.7c-.098 0-.199-.009-.297-.028-.098-.019-.148-.051-.148-.101v-1.19c0-.047.051-.082.148-.101.098-.019.199-.028.297-.028h3.989c.272 0 .502-.069.688-.212s.278-.395.278-.755v-2.172h1.43v2.172c0 .347.12.597.363.745.24.148.502.221.789.221.272 0 .515-.069.733-.212.215-.142.325-.395.325-.755V40.27h1.449v2.172c0 .347.117.597.35.745.237.148.496.221.78.221.275 0 .518-.069.736-.212.215-.142.325-.395.325-.755v-2.172h1.446v2.172c0 .347.123.597.363.745.243.148.505.221.789.221v1.451zm-7.745-6.836c0-.259.092-.48.272-.666.18-.186.404-.278.676-.281.249.003.461.095.641.281.18.186.272.407.272.666 0 .249-.092.464-.272.641-.18.18-.392.272-.641.272-.272 0-.496-.092-.676-.272-.18-.176-.272-.391-.272-.641zm2.526 0c0-.259.092-.48.272-.666.177-.186.398-.278.657-.281.262.003.48.095.66.281.18.186.268.407.268.666 0 .249-.088.464-.268.641-.18.18-.398.272-.66.272-.259 0-.48-.092-.657-.272-.18-.176-.272-.391-.272-.641zm-1.282-1.967c0-.246.092-.464.272-.65.18-.186.398-.278.66-.278.259 0 .477.092.647.278.174.186.262.404.262.65 0 .259-.088.48-.262.66-.171.18-.388.268-.647.268-.262 0-.48-.088-.66-.268s-.272-.401-.272-.66z"/><path d="M28.534 44.858c-.098 0-.199-.009-.297-.028-.098-.019-.148-.051-.148-.101v-1.19c0-.047.051-.082.148-.101.098-.019.199-.028.297-.028h1.857v1.449h-1.857z"/><path d="M30.391 44.858c-.098 0-.199-.009-.297-.028-.098-.019-.148-.051-.148-.101v-1.19c0-.047.051-.082.148-.101.098-.019.199-.028.297-.028h1.857v1.449h-1.857z"/><path d="M31.802 43.538c0-.047.051-.082.148-.101.098-.019.199-.028.297-.028h8.989c.594 0 1.036-.114 1.326-.344.294-.227.439-.483.439-.77 0-.284-.145-.543-.439-.78-.29-.234-.733-.35-1.326-.35h-8.023l-.966-1.746 4.774-4.774 1.039 1.02-4.067 4.07h7.243c.534 0 .998.073 1.392.221.398.148.726.344.995.587.265.24.467.515.603.824.136.309.205.619.205.928 0 .322-.069.638-.205.947-.136.309-.338.587-.603.827-.268.243-.597.433-.995.575-.395.145-.859.215-1.392.215h-8.989c-.098 0-.199-.009-.297-.028-.098-.019-.148-.051-.148-.101v-1.192zm17.59 1.32c-.597 0-1.02.117-1.272.354-.256.234-.382.496-.382.78s.114.515.344.688c.227.171.641.259 1.235.259h7.837l.262 1.449h-8.023c-.559 0-1.029-.066-1.415-.196-.382-.129-.691-.303-.928-.521-.234-.215-.404-.47-.508-.761-.107-.29-.158-.597-.158-.919s.06-.638.183-.947c.126-.309.313-.584.568-.827.253-.24.565-.436.938-.584.373-.148.805-.224 1.301-.224h.647v1.449h-.629z"/><path d="M50.021 44.858c-.098 0-.199-.009-.297-.028-.098-.019-.148-.051-.148-.101v-1.19c0-.047.051-.082.148-.101.098-.019.199-.028.297-.028h1.857v1.449h-1.857z"/><path d="M51.877 44.858c-.098 0-.199-.009-.297-.028-.098-.019-.148-.051-.148-.101v-1.19c0-.047.051-.082.148-.101.098-.019.199-.028.297-.028h1.857v1.449h-1.857z"/><path d="M53.734 44.858c-.098 0-.199-.009-.297-.028-.098-.019-.148-.051-.148-.101v-1.19c0-.047.051-.082.148-.101.098-.019.199-.028.297-.028h1.857v1.449h-1.857z"/><path d="M55.59 44.858c-.098 0-.199-.009-.297-.028-.098-.019-.148-.051-.148-.101v-1.19c0-.047.051-.082.148-.101.098-.019.199-.028.297-.028h1.857v1.449H55.59z"/><path d="M57.447 44.858c-.098 0-.199-.009-.297-.028-.098-.019-.148-.051-.148-.101v-1.19c0-.047.051-.082.148-.101.098-.019.199-.028.297-.028h1.857v1.449h-1.857z"/><path d="M59.304 44.858c-.098 0-.199-.009-.297-.028-.098-.019-.148-.051-.148-.101v-1.19c0-.047.051-.082.148-.101.098-.019.199-.028.297-.028h1.857v1.449h-1.857z"/><path d="M61.16 44.858c-.098 0-.199-.009-.297-.028-.098-.019-.148-.051-.148-.101v-1.19c0-.047.051-.082.148-.101.098-.019.199-.028.297-.028h1.857v1.449H61.16z"/><path d="M63.017 44.858c-.098 0-.199-.009-.297-.028-.098-.019-.148-.051-.148-.101v-1.19c0-.047.051-.082.148-.101.098-.019.199-.028.297-.028h1.857v1.449h-1.857z"/><path d="M64.873 44.858c-.098 0-.199-.009-.297-.028-.098-.019-.148-.051-.148-.101v-1.19c0-.047.051-.082.148-.101.098-.019.199-.028.297-.028h1.857v1.449h-1.857z"/><path d="M66.73 44.858c-.098 0-.199-.009-.297-.028-.098-.019-.148-.051-.148-.101v-1.19c0-.047.051-.082.148-.101.098-.019.199-.028.297-.028h1.857v1.449H66.73z"/><path d="M72.748 44.858c-.373 0-.657-.038-.856-.111-.199-.076-.388-.218-.575-.429-.186.212-.382.354-.587.429-.202.073-.489.111-.862.111h-1.282c-.098 0-.199-.009-.297-.028-.098-.019-.148-.051-.148-.101v-1.19c0-.047.051-.082.148-.101.098-.019.199-.028.297-.028h1.115c.284 0 .502-.076.65-.23.148-.155.221-.429.221-.827V40.44h1.468v1.913c0 .398.079.673.234.827.155.155.373.23.657.23h.038v1.449h-.221zm-4.181-6.741c0-.259.092-.483.268-.669.18-.186.407-.278.679-.278.249 0 .461.092.641.278.18.186.268.41.268.669 0 .246-.088.461-.268.641s-.392.268-.641.268c-.272 0-.499-.088-.679-.268-.176-.18-.268-.395-.268-.641zm2.526 0c0-.259.092-.483.268-.669.18-.186.401-.278.66-.278.262 0 .48.092.66.278.18.186.268.41.268.669 0 .246-.088.461-.268.641-.18.18-.398.268-.66.268-.259 0-.48-.088-.66-.268-.176-.18-.268-.395-.268-.641z"/><path d="M72.524 43.538c0-.047.051-.082.148-.101.098-.019.199-.028.297-.028h.167c.246 0 .436-.022.565-.073.133-.051.227-.123.29-.224.06-.098.098-.221.111-.369.013-.148.019-.322.019-.521 0-.385.044-.761.139-1.134.092-.373.234-.701.426-.995.193-.29.442-.521.751-.695.309-.174.682-.262 1.115-.262.385 0 .733.082 1.042.243s.568.382.78.66c.208.278.373.606.493.982.117.379.174.78.174 1.2 0 .928-.23 1.636-.695 2.125-.464.489-1.061.736-1.793.736-.382 0-.748-.095-1.096-.281-.347-.183-.625-.439-.834-.761-.114.249-.275.448-.483.597-.212.148-.546.221-1.004.221h-.167c-.098 0-.199-.009-.297-.028-.098-.019-.148-.051-.148-.101v-1.191zm5.238-1.411c0-.518-.111-.906-.325-1.159-.218-.256-.512-.382-.884-.382-.369 0-.666.126-.89.382-.224.253-.335.641-.335 1.159 0 .521.111.906.335 1.152.224.249.521.373.89.373.373 0 .666-.123.884-.373.214-.246.325-.631.325-1.152zm5.847 2.731c-.717 0-1.288-.183-1.708-.546-.42-.366-.631-.957-.631-1.774v-6.722h1.411v6.479c0 .47.095.774.287.912.193.136.455.202.789.202h.335v1.449h-.483z"/><path d="M84.093 44.858c-.098 0-.199-.009-.297-.028-.098-.019-.148-.051-.148-.101v-1.19c0-.047.051-.082.148-.101.098-.019.199-.028.297-.028h1.857v1.449h-1.857z"/><path d="M85.949 44.858c-.098 0-.199-.009-.297-.028-.098-.019-.148-.051-.148-.101v-1.19c0-.047.051-.082.148-.101.098-.019.199-.028.297-.028h1.857v1.449h-1.857z"/><path d="M87.806 44.858c-.098 0-.199-.009-.297-.028-.098-.019-.148-.051-.148-.101v-1.19c0-.047.051-.082.148-.101.098-.019.199-.028.297-.028h1.857v1.449h-1.857z"/><path d="M89.662 44.858c-.098 0-.199-.009-.297-.028-.098-.019-.148-.051-.148-.101v-1.19c0-.047.051-.082.148-.101.098-.019.199-.028.297-.028h1.857v1.449h-1.857z"/><path d="M91.074 43.538c0-.047.051-.082.148-.101.098-.019.199-.028.297-.028h3.862c.448 0 .736-.088.865-.268s.189-.392.177-.641l-1.822-.057c-.631-.022-1.089-.234-1.373-.631-.284-.395-.426-.903-.426-1.522 0-.335.057-.644.177-.928.117-.284.281-.534.493-.742.208-.212.461-.376.751-.493.29-.117.616-.177.976-.177.42 0 .793.085 1.115.259.322.174.59.401.805.679.218.278.382.594.493.947.114.354.167.714.167 1.086v1.058c0 .385-.041.751-.129 1.096-.085.347-.218.654-.398.922-.18.265-.407.477-.679.631-.272.155-.594.23-.966.23h-4.086c-.098 0-.199-.009-.297-.028-.098-.019-.148-.051-.148-.101v-1.191zm5.348-2.469c0-.199-.035-.398-.101-.603-.069-.205-.161-.385-.281-.54-.117-.155-.259-.281-.426-.379-.167-.101-.357-.148-.565-.148-.398 0-.673.092-.827.278-.155.186-.234.414-.234.688 0 .259.104.429.306.508.205.082.407.129.606.139l1.522.057zm-3.564-4.774c0-.259.088-.48.268-.666.18-.186.404-.278.676-.281.249.003.464.095.641.281.18.186.272.407.272.666 0 .249-.092.464-.272.641-.177.18-.392.272-.641.272-.272 0-.496-.092-.676-.272-.18-.177-.268-.391-.268-.641zm2.522 0c0-.259.092-.48.272-.666.18-.186.398-.278.66-.281.259.003.48.095.657.281.18.186.272.407.272.666 0 .249-.092.464-.272.641-.177.18-.398.272-.657.272-.262 0-.48-.092-.66-.272-.18-.177-.272-.391-.272-.641zm4.626 8.563v-9.043h1.355v9.043h-1.355zm14.985 0c-.284 0-.524-.06-.723-.177s-.366-.262-.502-.436v.373c0 .445-.069.884-.215 1.317-.142.433-.354.821-.638 1.162-.287.341-.654.616-1.105.827-.455.208-.982.316-1.588.316h-2.157c-.568 0-1.074-.066-1.512-.196-.439-.129-.811-.338-1.115-.622-.303-.284-.534-.66-.688-1.124-.155-.464-.23-1.026-.23-1.68v-2.936h1.449v2.936c0 .704.189 1.244.575 1.613.385.373.941.559 1.67.559h1.876c.745 0 1.301-.186 1.673-.559.369-.369.556-.909.556-1.613v-4.31h1.449v2.526c.051.174.186.313.407.417.224.107.496.158.818.158h.354v1.449h-.354z"/><path d="M108.029 40.233c0-.297.104-.549.316-.761.208-.208.47-.316.78-.316.297 0 .549.107.761.316.208.212.316.464.316.761 0 .3-.107.556-.316.774-.212.215-.464.325-.761.322-.309.003-.571-.107-.78-.322-.212-.219-.316-.474-.316-.774zm6.871 3.305c0-.047.051-.082.148-.101.098-.019.199-.028.297-.028h8.989c.594 0 1.036-.114 1.326-.344.294-.227.439-.483.439-.77 0-.284-.145-.543-.439-.78-.29-.234-.733-.35-1.326-.35h-8.023l-.966-1.746 4.774-4.774 1.039 1.02-4.067 4.07h7.243c.534 0 .998.073 1.392.221.398.148.726.344.995.587.265.24.467.515.603.824.136.309.205.619.205.928 0 .322-.069.638-.205.947-.136.309-.338.587-.603.827-.268.243-.597.433-.995.575-.395.145-.859.215-1.392.215h-8.989c-.098 0-.199-.009-.297-.028-.098-.019-.148-.051-.148-.101v-1.192zm17.198 1.32c-.717 0-1.288-.183-1.708-.546-.42-.366-.631-.957-.631-1.774v-6.722h1.411v6.479c0 .47.095.774.287.912.193.136.455.202.789.202h.335v1.449h-.483z"/><path d="M132.136 43.538c0-.047.051-.082.148-.101.098-.019.199-.028.297-.028h.167c.246 0 .436-.022.565-.073.133-.051.227-.123.29-.224.06-.098.098-.221.111-.369.013-.148.019-.322.019-.521 0-.385.044-.761.139-1.134.092-.373.234-.701.426-.995.193-.29.442-.521.751-.695.309-.174.682-.262 1.115-.262.385 0 .733.082 1.042.243.309.161.568.382.78.66.208.278.373.606.493.982.117.379.174.78.174 1.2 0 .928-.23 1.636-.695 2.125s-1.061.736-1.793.736c-.382 0-.748-.095-1.096-.281-.347-.183-.625-.439-.834-.761-.114.249-.275.448-.483.597-.212.148-.546.221-1.004.221h-.167c-.098 0-.199-.009-.297-.028-.098-.019-.148-.051-.148-.101v-1.191zm5.238-1.411c0-.518-.111-.906-.325-1.159-.218-.256-.512-.382-.884-.382-.369 0-.666.126-.89.382-.224.253-.335.641-.335 1.159 0 .521.111.906.335 1.152.224.249.521.373.89.373.373 0 .666-.123.884-.373.215-.246.325-.631.325-1.152zm2.58 2.731v-9.043h1.355v9.043h-1.355zm9.507-.297c0 .47-.082.938-.249 1.402-.167.464-.407.878-.717 1.244-.309.366-.682.663-1.124.89-.439.23-.938.344-1.493.344h-1.822l-.202-1.411h1.894c.691 0 1.244-.186 1.651-.556.41-.373.613-.894.613-1.56-.606 0-1.13-.038-1.579-.114-.445-.073-.811-.208-1.105-.407-.29-.199-.505-.474-.647-.827-.145-.35-.215-.815-.215-1.383 0-.954.186-1.692.556-2.22.373-.524.998-.789 1.876-.789.534 0 .966.085 1.301.253s.594.392.78.676c.186.287.313.616.382.995.066.379.101.777.101 1.197v2.266zm-1.449-2.563c0-.928-.369-1.392-1.115-1.392-.382 0-.657.129-.824.392-.167.259-.253.518-.253.78v.426c0 .47.155.802.464.995.309.189.887.287 1.727.287v-1.488z"/></g><path fill="#F0535D" d="M158.576 10.921h1.247V51.75h-1.247zm100.411 19.486c-.979-2.393-2.919-4.366-5.286-5.402-1.818-.79-3.874-1.075-5.827-.695-1.901.379-3.724 1.23-5.177 2.521-.859.77-1.591 1.684-2.16 2.689l-.001-.003-.012.024c-.174.31-.33.629-.472.954l-6.93 14.022h.006l-.006.01c.65 0 8.059.009 10.153.015 2.471-.02 4.955.133 7.418-.158 2.351-.277 4.661-1.28 6.306-3.01 1.269-1.301 2.09-2.996 2.457-4.768.427-2.052.368-4.253-.469-6.199zm-4.669 5.682c-.473 1.445-1.663 2.624-3.106 3.1-1.95.626-4.292.132-5.688-1.409-1.062-1.18-1.403-2.901-1.051-4.429.457-1.968 2.136-3.567 4.115-3.955.978-.233 2.012-.122 2.937.256 1.063.435 1.982 1.224 2.505 2.254.667 1.275.737 2.825.288 4.183z"/><path fill="#D33D4C" d="M252.355 30.085l.745.587c-.229-.218-.478-.415-.745-.587zm-7.568 6.541c.122.271.268.531.441.774l-.441-.774zm-.035-.06l.035.061c-.01-.022-.019-.044-.028-.066l-.007.005zm7.592-6.489v.001l.011.007" opacity=".6"/><linearGradient id="a" x1="246.0991" x2="246.063" y1="38.3213" y2="38.2816" gradientUnits="userSpaceOnUse"><stop offset="0" stop-color="#F0535D"/><stop offset="1" stop-color="#CC3241"/></linearGradient><path fill="url(#a)" d="M246.022 38.245l.074.079.008-.006c-.029-.023-.054-.05-.082-.073z"/><linearGradient id="b" x1="256.5421" x2="253.0503" y1="41.7696" y2="37.9287" gradientUnits="userSpaceOnUse"><stop offset="0" stop-color="#F0535D"/><stop offset="1" stop-color="#C02F3D"/></linearGradient><path fill="url(#b)" d="M253.1 30.672c.374.356.693.768.929 1.233.668 1.276.738 2.826.289 4.184-.473 1.445-1.663 2.624-3.106 3.1-1.701.546-3.699.239-5.108-.871l-.008.006 5.533 5.888s2.236-.222 4.727-2.224c2.701-2.381 3.012-5.154 3.012-5.154l-6.268-6.162z"/><g fill="#FFF"><path d="M236.176 34.563c-.198-1.82-.731-3.811-1.786-5.326-1.133-1.659-2.802-2.938-4.68-3.642-.243-.09-.284-.131-.705-.277l-2.256 4.444c1.151.598 1.208.503 2.213 1.17 1.335.877 2.088 2.511 2.008 4.092-.087 1.571-1.044 3.039-2.399 3.82-.811.481-1.767.629-2.698.616-3.484-.02-6.967-.006-10.45.01-.531.001-1.068-.002-1.586-.137-1.925-.491-3.493-2.295-3.545-4.307-.042-2.017-.007-4.035-.03-6.052-1.682 0-3.365.005-5.046 0-.065 1.643-.037 3.287-.032 4.932.006.948-.016 1.905.174 2.841.455 2.33 1.837 4.433 3.707 5.877 1.668 1.266 3.759 1.994 5.858 1.954 2.736-.015 5.474.014 8.212-.004 1.842 0 6.193-.012 8.029-.012m-25.991-22.757h5.093v4.678h-5.093zm6.596 0h5.093v4.678h-5.093zm62.964-5.398h5.093v4.678h-5.093zm6.596 0h5.093v4.678h-5.093z"/><path d="M262.19 20.402l5.083-3.794s-.011 12.851.009 18.717c-.031 1.259.542 2.551 1.619 3.243.803.527 1.811.408 2.724.423-.866-1.867-1.236-3.976-.929-6.02.315-2.32 1.253-4.47 2.959-6.054 1.239-1.172 2.8-1.953 4.42-2.443 2.48-.739 5.509-.354 7.771.869 3.092 1.679 5.243 5.066 5.236 8.612.009 2.44-.673 4.958-2.259 6.853-1.465 1.81-3.638 2.948-5.898 3.406-1.994.415-4.041.246-6.061.261-2.789-.042-5.638.209-8.361-.541-3.576-.938-6.337-4.407-6.358-8.118-.005-3.979-.005-7.958-.006-11.937.012-2.051.051-3.477.051-3.477zm18.212 8.901c-2.031.177-3.851 1.688-4.458 3.626-.488 1.493-.25 3.221.687 4.491 1.325 1.784 3.847 2.383 5.918 1.728 1.305-.403 2.419-1.383 2.962-2.639.403-.942.536-1.996.407-3.011-.205-1.667-1.361-3.154-2.881-3.843-.823-.369-1.747-.437-2.635-.352zm13.292-9.039l5.413-3.857s.006 19.396.01 28.076c-1.799.001-3.598.037-5.394-.007-.014-7.496-.029-24.212-.029-24.212z"/></g><path fill="#FFF" d="M188.805 22.338c.227-.441.719-1.407.719-1.407s.595.013.892.003c1.513.015 3.026-.01 4.537.026-2.541 5.304-7.74 15.873-7.74 15.873s3.764-.013 5.647 0c.065-3.761-.026-7.511.062-11.272 1.653-.003 3.305-.009 4.958.004-.005 3.752-.003 7.503.004 11.253 1.106.038 2.214-.015 3.32.035-.01 1.64-.013 3.281.006 4.922-1.105.038-2.211.011-3.316.023-.038 1.413.001 2.827-.023 4.24-1.654.038-3.309.023-4.963.01-.058-1.417.001-2.836-.03-4.254-7.284-.035-14.57.01-21.853-.024 2.399-4.802 4.819-9.592 7.236-14.383.24-.503.536-.982.72-1.51.365-1.157-.063-2.464-.909-3.304-1.199-1.194-3.358-1.276-4.591-.092-1.299 1.216-1.514 3.498-.264 4.82.427.448.977.741 1.507 1.047-.716 1.481-1.422 2.969-2.234 4.401-1.113-.508-2.2-1.152-3.006-2.088-1.27-1.522-1.979-3.488-2.021-5.465-.049-2.004.681-3.992 1.914-5.56.924-1.199 2.243-2.068 3.702-2.467 2.463-.696 5.291-.412 7.404 1.1 1.78 1.265 3.055 3.221 3.48 5.364.364 1.645.024 3.369-.69 4.872-1.373 2.789-4.143 8.327-4.143 8.327h2.46"/></svg>