<?xml version="1.0" encoding="iso-8859-1"?>
<!-- Generator: Adobe Illustrator 21.0.0, SVG Export Plug-In . SVG Version: 6.00 Build 0)  -->
<svg version="1.1" id="Layer_1" xmlns="http://www.w3.org/2000/svg" xmlns:xlink="http://www.w3.org/1999/xlink" x="0px" y="0px"
	 viewBox="0 0 234 52" style="enable-background:new 0 0 234 52;" xml:space="preserve">
<path style="fill-rule:evenodd;clip-rule:evenodd;fill:#009DE2;" d="M208,52c14.32,0,26-11.68,26-26c0-14.32-11.68-26-26-26
	c-14.32,0-26,11.68-26,26C182,40.32,193.68,52,208,52z"/>
<path style="fill-rule:evenodd;clip-rule:evenodd;fill:#FFFFFF;" d="M196.169,39.734l-6.609-13.066
	c-0.814-1.614-0.989-3.177-0.528-4.694c0.466-1.517,1.479-2.673,3.042-3.467c1.852-0.933,3.707-0.81,5.565,0.375
	c0.148-1.22,0.471-2.203,0.974-2.943c0.502-0.745,1.264-1.376,2.292-1.896c1.629-0.82,3.132-0.943,4.518-0.359
	c1.381,0.584,2.564,1.84,3.533,3.763l6.372,12.6l-5.374,2.717l-5.965-11.791c-0.289-0.572-0.525-0.925-0.714-1.066
	c-0.189-0.141-0.428-0.134-0.711,0.01c-0.537,0.268-0.583,0.847-0.139,1.728l6.011,11.887l-5.374,2.717l-5.965-11.791
	c-0.284-0.562-0.52-0.916-0.714-1.057c-0.194-0.141-0.438-0.139-0.721,0c-0.532,0.273-0.557,0.878-0.083,1.824l5.965,11.791
	L196.169,39.734z"/>
<path style="fill-rule:evenodd;clip-rule:evenodd;fill:#FFFFFF;" d="M219.144,14.399l2.041,4.038l-3.491,1.768
	c-0.476,0.238-0.774,0.478-0.904,0.718c-0.125,0.245-0.103,0.534,0.067,0.868c0.191,0.379,0.416,0.576,0.68,0.594
	c0.264,0.013,0.705-0.132,1.328-0.446l3.593-1.82l2.609,5.162l-4.195,2.124c-1.993,1.01-3.759,1.308-5.296,0.893
	c-1.532-0.415-2.754-1.518-3.662-3.31l-3.593-7.105c-0.876-1.741-1.061-3.345-0.549-4.811c0.512-1.462,1.677-2.654,3.483-3.566
	l4.645-2.351l2.64,5.222l-3.406,1.722c-0.926,0.469-1.237,1.01-0.933,1.612c0.181,0.354,0.415,0.545,0.705,0.574
	c0.29,0.023,0.721-0.107,1.282-0.391L219.144,14.399z"/>
<path style="fill-rule:evenodd;clip-rule:evenodd;fill:none;stroke:#FFFFFF;stroke-width:8.5039;stroke-miterlimit:22.9256;" d="
	M224.988,29.358c-0.71,5.5-4.064,10.555-9.402,13.209c-5.327,2.647-11.367,2.275-16.175-0.463"/>
<path style="fill-rule:evenodd;clip-rule:evenodd;fill:#009DE2;" d="M208,52c14.32,0,26-11.68,26-26c0-14.32-11.68-26-26-26
	c-14.32,0-26,11.68-26,26C182,40.32,193.68,52,208,52z"/>
<path style="fill-rule:evenodd;clip-rule:evenodd;fill:#FFFFFF;" d="M213.679,26.222c0.449,0.977,0.837,1.819,1.145,2.438
	l-5.377,2.672l-5.854-11.781c-0.284-0.57-0.518-0.928-0.705-1.066c-0.187-0.138-0.425-0.139-0.714,0.005
	c-0.539,0.268-0.585,0.844-0.147,1.727l5.9,11.871l-5.377,2.672l-5.854-11.781c-0.279-0.561-0.518-0.917-0.707-1.06
	c-0.194-0.14-0.431-0.141-0.716,0.001c-0.534,0.265-0.567,0.869-0.097,1.814l5.855,11.781l-5.377,2.672l-6.487-13.052
	c-0.803-1.615-0.968-3.176-0.497-4.691c0.473-1.511,1.491-2.654,3.057-3.433c1.856-0.922,3.704-0.78,5.548,0.42
	c0.154-1.222,0.487-2.2,0.99-2.936c0.506-0.742,1.269-1.364,2.296-1.875c1.629-0.81,3.132-0.919,4.51-0.328
	c0.655,0.285,1.405,0.954,2.12,1.847c-0.158-0.93-0.147-1.797,0.119-2.542c0.526-1.452,1.686-2.627,3.496-3.527l4.671-2.321
	l2.591,5.214l-3.43,1.705c-0.919,0.457-1.225,0.987-0.926,1.589c0.176,0.353,0.406,0.543,0.69,0.571
	c0.292,0.03,0.714-0.095,1.271-0.372l2.96-1.471l1.997,4.019l-3.498,1.739c-0.475,0.236-0.779,0.477-0.904,0.714
	c-0.127,0.244-0.107,0.533,0.061,0.873c0.191,0.385,0.415,0.584,0.679,0.605c0.264,0.021,0.706-0.125,1.33-0.435l3.616-1.797
	l2.564,5.159l-4.222,2.099C217.821,27.171,215.501,27.352,213.679,26.222z"/>
<path style="fill-rule:evenodd;clip-rule:evenodd;fill:none;stroke:#FFFFFF;stroke-width:2;stroke-miterlimit:22.9256;" d="
	M225.89,29.79c-1.619,12.542-15.609,19.513-26.597,13.254"/>
<g>
	<path style="fill:#009EE3;" d="M0.617,22.444c-0.32-0.288-0.48-0.64-0.48-1.088c0-0.8,0.672-1.472,1.503-1.472
		c0.352,0,0.704,0.128,1.056,0.448c0.992,0.928,2.176,1.632,3.68,1.632c1.376,0,2.528-0.576,2.528-1.76
		c0-1.024-0.928-1.44-2.208-1.952l-1.6-0.672c-2.528-1.056-4.096-2.208-4.096-4.576c0-2.912,2.432-4.544,5.536-4.544
		c2.016,0,3.775,0.736,4.992,1.92c0.352,0.32,0.512,0.704,0.512,1.12c0,0.8-0.64,1.44-1.408,1.44c-0.352,0-0.64-0.16-1.056-0.48
		c-0.832-0.64-1.92-1.088-3.104-1.088c-1.248,0-2.144,0.48-2.144,1.504c0,0.864,0.64,1.28,2.08,1.855l1.504,0.608
		c2.848,1.184,4.288,2.432,4.288,4.735c0,3.168-2.688,4.8-5.824,4.8C3.945,24.876,1.961,23.884,0.617,22.444z"/>
	<path style="fill:#009EE3;" d="M27.4,15.021v8.16c0,0.992-0.704,1.696-1.664,1.696s-1.664-0.736-1.664-1.696v-0.192
		c-1.152,1.216-2.815,1.888-4.832,1.888c-3.264,0-5.472-1.824-5.472-4.544c0-2.751,2.24-4.479,5.792-4.479h4.448v-1.024
		c0-2.144-1.216-3.36-3.36-3.36c-1.312,0-2.496,0.48-3.487,1.472c-0.416,0.352-0.768,0.512-1.152,0.512
		c-0.8,0-1.472-0.672-1.472-1.408c0-0.48,0.224-0.928,0.672-1.376c1.344-1.408,3.424-2.208,5.728-2.208
		C25,8.461,27.4,10.894,27.4,15.021z M24.008,18.573v-0.288h-4.032c-1.824,0-2.784,0.672-2.784,1.92c0,1.28,1.088,2.08,2.752,2.08
		C22.216,22.285,24.008,20.653,24.008,18.573z"/>
	<path style="fill:#009EE3;" d="M34.856,5.934v2.88h2.528c0.864,0,1.504,0.64,1.504,1.472c0,0.832-0.64,1.44-1.504,1.44h-2.528
		v11.423c0,1.024-0.704,1.728-1.664,1.728c-0.992,0-1.696-0.736-1.696-1.728V11.726h-1.088c-0.832,0-1.472-0.608-1.472-1.44
		c0-0.832,0.64-1.472,1.472-1.472h1.088V5.646c0-3.456,2.016-5.472,5.408-5.472c0.736,0,1.312,0.096,1.824,0.288
		c0.608,0.224,0.992,0.736,0.992,1.44c0,0.8-0.608,1.344-1.503,1.344c-0.224,0-0.448-0.032-0.768-0.032
		C35.784,3.214,34.856,4.174,34.856,5.934z"/>
	<path style="fill:#009EE3;" d="M52.551,15.021v8.16c0,0.992-0.704,1.696-1.664,1.696s-1.664-0.736-1.664-1.696v-0.192
		c-1.152,1.216-2.815,1.888-4.832,1.888c-3.264,0-5.472-1.824-5.472-4.544c0-2.751,2.24-4.479,5.792-4.479h4.448v-1.024
		c0-2.144-1.216-3.36-3.36-3.36c-1.312,0-2.496,0.48-3.487,1.472c-0.416,0.352-0.768,0.512-1.152,0.512
		c-0.8,0-1.472-0.672-1.472-1.408c0-0.48,0.224-0.928,0.672-1.376c1.344-1.408,3.424-2.208,5.728-2.208
		C50.151,8.461,52.551,10.894,52.551,15.021z M49.159,18.573v-0.288h-4.032c-1.824,0-2.784,0.672-2.784,1.92
		c0,1.28,1.088,2.08,2.752,2.08C47.367,22.285,49.159,20.653,49.159,18.573z"/>
	<path style="fill:#009EE3;" d="M65.383,10.189c0,0.928-0.672,1.568-1.632,1.632c-2.56,0.064-4.32,1.792-4.32,4.32v7.007
		c0,1.024-0.704,1.728-1.664,1.728c-0.96,0-1.696-0.736-1.696-1.728V10.189c0-0.992,0.704-1.728,1.696-1.728
		c0.928,0,1.632,0.736,1.632,1.728v0.48c1.056-1.248,2.624-2.016,4.383-2.016C64.711,8.653,65.383,9.293,65.383,10.189z"/>
	<path style="fill:#009EE3;" d="M90.502,14.701v8.447c0,1.024-0.736,1.728-1.696,1.728s-1.696-0.736-1.696-1.728v-7.967
		c0-2.24-1.248-3.648-3.264-3.648c-1.984,0-3.456,1.472-3.456,3.488v8.127c0,1.024-0.736,1.728-1.664,1.728
		c-0.992,0-1.696-0.736-1.696-1.728v-7.967c0-2.208-1.312-3.648-3.295-3.648c-2.048,0-3.456,1.472-3.456,3.648v7.967
		c0,1.024-0.704,1.728-1.664,1.728c-0.96,0-1.696-0.736-1.696-1.728V10.189c0-0.992,0.704-1.728,1.696-1.728
		c0.896,0,1.6,0.704,1.632,1.632c1.088-1.024,2.592-1.632,4.352-1.632c2.144,0,3.808,0.864,4.768,2.464
		c1.184-1.536,3.104-2.464,5.312-2.464C88.263,8.461,90.502,10.861,90.502,14.701z"/>
	<path style="fill:#009EE3;" d="M108.422,15.757v0.16c0,1.152-0.736,1.856-1.919,1.856H96.456c0.448,2.528,2.336,4.127,5.12,4.127
		c1.344,0,2.624-0.416,3.68-1.216c0.288-0.192,0.576-0.32,0.864-0.32c0.8,0,1.408,0.608,1.408,1.408c0,0.576-0.224,0.96-0.832,1.408
		c-1.504,1.12-3.264,1.696-5.216,1.696c-4.864,0-8.447-3.488-8.447-8.191c0-4.64,3.52-8.224,8.095-8.224
		C105.319,8.461,108.422,11.533,108.422,15.757z M96.52,15.149h8.543c-0.064-2.271-1.664-3.839-4.032-3.839
		C98.759,11.31,97.031,12.845,96.52,15.149z"/>
	<path style="fill:#009EE3;" d="M110.503,22.413c0-1.376,1.12-2.496,2.528-2.496c1.376,0,2.464,1.12,2.464,2.496
		s-1.088,2.464-2.464,2.464C111.624,24.876,110.503,23.789,110.503,22.413z"/>
	<path style="fill:#009EE3;" d="M117.606,16.653c0-4.576,3.648-8.191,8.32-8.191c2.751,0,5.119,1.312,6.335,3.2
		c0.256,0.384,0.32,0.64,0.32,0.896c0,0.864-0.672,1.536-1.504,1.536c-0.448,0-0.832-0.128-1.185-0.544
		c-0.928-1.152-2.207-1.984-3.936-1.984c-2.815,0-4.928,2.176-4.928,5.087c0,2.976,2.08,5.12,4.928,5.12
		c1.729,0,2.976-0.832,3.936-1.952c0.385-0.448,0.736-0.544,1.185-0.544c0.832,0,1.504,0.672,1.504,1.504
		c0,0.288-0.064,0.544-0.288,0.864c-1.313,1.952-3.552,3.232-6.367,3.232C121.255,24.876,117.606,21.261,117.606,16.653z"/>
	<path style="fill:#009EE3;" d="M150.758,16.653c0,4.576-3.68,8.224-8.352,8.224c-4.64-0.032-8.288-3.648-8.288-8.224
		c0-4.607,3.648-8.191,8.288-8.191C147.078,8.461,150.758,12.077,150.758,16.653z M137.542,16.685c0,2.912,2.08,5.087,4.864,5.087
		c2.783,0,4.896-2.208,4.896-5.087c0-2.944-2.112-5.12-4.863-5.152C139.622,11.565,137.542,13.741,137.542,16.685z"/>
	<path style="fill:#009EE3;" d="M177.028,14.701v8.447c0,1.024-0.735,1.728-1.695,1.728s-1.696-0.736-1.696-1.728v-7.967
		c0-2.24-1.248-3.648-3.264-3.648c-1.983,0-3.455,1.472-3.455,3.488v8.127c0,1.024-0.736,1.728-1.664,1.728
		c-0.992,0-1.696-0.736-1.696-1.728v-7.967c0-2.208-1.312-3.648-3.296-3.648c-2.048,0-3.455,1.472-3.455,3.648v7.967
		c0,1.024-0.704,1.728-1.664,1.728s-1.696-0.736-1.696-1.728V10.189c0-0.992,0.704-1.728,1.696-1.728c0.896,0,1.6,0.704,1.632,1.632
		c1.088-1.024,2.592-1.632,4.352-1.632c2.144,0,3.808,0.864,4.768,2.464c1.184-1.536,3.104-2.464,5.312-2.464
		C174.789,8.461,177.028,10.861,177.028,14.701z"/>
</g>
<g>
	<path style="fill:#009EE3;" d="M4.651,39.135c0.138,0.39,0.26,0.781,0.365,1.175c0.045,0.166,0.089,0.342,0.134,0.526
		c0.044,0.185,0.084,0.37,0.119,0.557c0.034,0.188,0.062,0.371,0.082,0.552s0.03,0.35,0.03,0.508c0,0.365-0.056,0.722-0.167,1.068
		c-0.112,0.347-0.266,0.682-0.463,1.004c-0.197,0.323-0.43,0.63-0.7,0.923c-0.27,0.292-0.563,0.567-0.88,0.827
		s-0.651,0.502-1.004,0.725c-0.353,0.224-0.71,0.424-1.071,0.603l-0.694-1.394c0.288-0.143,0.572-0.3,0.852-0.472
		c0.28-0.173,0.547-0.356,0.801-0.551c0.253-0.195,0.489-0.401,0.706-0.618c0.217-0.217,0.404-0.44,0.56-0.67
		c0.156-0.229,0.279-0.464,0.368-0.706c0.089-0.241,0.134-0.487,0.134-0.739c0-0.231-0.026-0.475-0.079-0.73
		s-0.116-0.509-0.188-0.761c-0.073-0.252-0.15-0.492-0.231-0.722c-0.082-0.229-0.148-0.433-0.201-0.611L4.651,39.135z"/>
	<path style="fill:#009EE3;" d="M5.929,45.922c0.597-0.118,1.135-0.275,1.616-0.472c0.48-0.197,0.897-0.417,1.25-0.66
		c0.353-0.244,0.64-0.504,0.861-0.779c0.221-0.276,0.369-0.552,0.441-0.828c-0.102,0-0.207,0-0.316,0
		c-0.11,0-0.219-0.002-0.329-0.006c-0.11-0.004-0.215-0.008-0.317-0.01c-0.101-0.002-0.19-0.007-0.268-0.015
		c-0.451-0.032-0.856-0.128-1.217-0.286C7.291,42.708,7,42.493,6.781,42.221c-0.154-0.194-0.265-0.412-0.332-0.651
		s-0.101-0.49-0.101-0.755c0-0.207,0.019-0.416,0.058-0.627S6.5,39.771,6.571,39.57c0.071-0.201,0.153-0.391,0.247-0.569
		s0.195-0.341,0.304-0.487c0.219-0.279,0.463-0.492,0.73-0.636c0.268-0.145,0.548-0.216,0.84-0.216c0.629,0,1.203,0.279,1.723,0.84
		c0.17,0.19,0.325,0.403,0.463,0.639c0.138,0.235,0.257,0.487,0.359,0.755s0.184,0.547,0.247,0.837s0.103,0.588,0.119,0.892h0.286
		c0.11,0,0.212,0.021,0.308,0.062c0.095,0.04,0.178,0.095,0.25,0.164c0.071,0.069,0.128,0.152,0.17,0.25
		c0.042,0.097,0.064,0.2,0.064,0.31c0,0.105-0.021,0.205-0.064,0.299c-0.042,0.093-0.1,0.176-0.17,0.246
		c-0.071,0.071-0.154,0.127-0.25,0.168c-0.096,0.04-0.198,0.061-0.308,0.061H11.48c-0.138,0.597-0.371,1.136-0.697,1.619
		c-0.327,0.482-0.72,0.904-1.178,1.263c-0.458,0.359-0.971,0.654-1.537,0.886c-0.566,0.231-1.158,0.396-1.774,0.493L5.929,45.922z
		 M8.692,39.227c-0.105,0-0.219,0.044-0.341,0.134c-0.122,0.089-0.233,0.203-0.334,0.344c-0.102,0.14-0.186,0.295-0.253,0.466
		c-0.067,0.17-0.1,0.337-0.1,0.499c0,0.17,0.04,0.312,0.119,0.423s0.18,0.202,0.304,0.271c0.124,0.069,0.264,0.121,0.42,0.155
		c0.156,0.035,0.312,0.061,0.466,0.076c0.085,0.004,0.178,0.009,0.28,0.013s0.206,0.006,0.313,0.006s0.214,0,0.32,0
		s0.205-0.004,0.298-0.013c-0.021-0.227-0.063-0.441-0.128-0.645s-0.141-0.392-0.229-0.566c-0.087-0.175-0.183-0.332-0.286-0.472
		c-0.103-0.14-0.2-0.261-0.289-0.362v0.006C9.184,39.488,9.1,39.414,9,39.339S8.798,39.227,8.692,39.227z"/>
	<path style="fill:#009EE3;" d="M10.884,42.403c0-0.109,0.021-0.212,0.061-0.308c0.041-0.095,0.096-0.177,0.167-0.246
		c0.071-0.069,0.153-0.124,0.246-0.164c0.094-0.041,0.195-0.062,0.305-0.062h0.675h0.292c0.199,0,0.41-0.007,0.633-0.021
		c0.223-0.015,0.438-0.043,0.643-0.086c0.205-0.042,0.39-0.102,0.557-0.177c0.167-0.074,0.29-0.171,0.372-0.289
		c0.061-0.089,0.092-0.209,0.094-0.358c0.002-0.15-0.019-0.314-0.061-0.493s-0.1-0.366-0.17-0.563
		c-0.071-0.196-0.147-0.388-0.228-0.572c-0.082-0.185-0.162-0.358-0.241-0.523c-0.079-0.164-0.145-0.303-0.198-0.417l1.418-0.699
		c0.109,0.194,0.218,0.429,0.326,0.702c0.107,0.274,0.202,0.558,0.283,0.85s0.147,0.58,0.198,0.864s0.076,0.536,0.076,0.755
		c0,0.394-0.067,0.745-0.201,1.053c-0.154,0.357-0.372,0.65-0.651,0.88s-0.613,0.4-0.998,0.515
		c-0.118,0.032-0.265,0.058-0.441,0.076c-0.177,0.018-0.356,0.032-0.539,0.042c-0.183,0.01-0.356,0.017-0.521,0.019
		c-0.165,0.002-0.292,0.003-0.38,0.003h-0.883h-0.055c-0.11,0-0.211-0.021-0.305-0.061c-0.093-0.041-0.175-0.096-0.246-0.165
		c-0.071-0.068-0.127-0.15-0.167-0.246S10.884,42.513,10.884,42.403z M14.36,35.416l-1.035,1.034l-1.047-1.041l1.035-1.04
		L14.36,35.416z M16.661,35.422l-1.035,1.041l-1.047-1.047l1.035-1.035L16.661,35.422z"/>
	<path style="fill:#009EE3;" d="M20.527,45.922c0.597-0.118,1.135-0.275,1.616-0.472c0.48-0.197,0.897-0.417,1.25-0.66
		c0.353-0.244,0.64-0.504,0.861-0.779c0.221-0.276,0.369-0.552,0.441-0.828c-0.102,0-0.207,0-0.316,0
		c-0.11,0-0.219-0.002-0.329-0.006c-0.11-0.004-0.215-0.008-0.317-0.01c-0.101-0.002-0.19-0.007-0.268-0.015
		c-0.451-0.032-0.856-0.128-1.217-0.286c-0.361-0.158-0.651-0.373-0.871-0.646c-0.154-0.194-0.265-0.412-0.332-0.651
		s-0.101-0.49-0.101-0.755c0-0.207,0.019-0.416,0.058-0.627s0.093-0.417,0.165-0.617c0.071-0.201,0.153-0.391,0.247-0.569
		s0.195-0.341,0.304-0.487c0.219-0.279,0.463-0.492,0.73-0.636c0.268-0.145,0.548-0.216,0.84-0.216c0.629,0,1.203,0.279,1.723,0.84
		c0.187,0.207,0.354,0.441,0.502,0.703c0.148,0.262,0.274,0.541,0.377,0.84c0.104,0.298,0.183,0.609,0.237,0.935
		c0.055,0.324,0.082,0.653,0.082,0.985c0,0.102-0.003,0.203-0.009,0.305c-0.006,0.102-0.013,0.199-0.021,0.292
		c-0.073,0.69-0.264,1.313-0.572,1.869c-0.309,0.556-0.701,1.04-1.178,1.451c-0.477,0.412-1.019,0.75-1.625,1.014
		c-0.606,0.264-1.245,0.446-1.914,0.548L20.527,45.922z M23.29,39.227c-0.105,0-0.219,0.044-0.341,0.134
		c-0.122,0.089-0.233,0.203-0.334,0.344c-0.102,0.14-0.186,0.295-0.253,0.466c-0.067,0.17-0.1,0.337-0.1,0.499
		c0,0.17,0.04,0.312,0.119,0.423s0.18,0.202,0.304,0.271c0.124,0.069,0.264,0.121,0.42,0.155c0.156,0.035,0.312,0.061,0.466,0.076
		c0.085,0.004,0.178,0.009,0.28,0.013s0.206,0.006,0.313,0.006s0.214,0,0.32,0s0.205-0.004,0.298-0.013
		c-0.021-0.227-0.063-0.441-0.128-0.645s-0.141-0.392-0.229-0.566c-0.087-0.175-0.183-0.332-0.286-0.472
		c-0.103-0.14-0.2-0.261-0.289-0.362v0.006c-0.069-0.072-0.153-0.146-0.252-0.222S23.396,39.227,23.29,39.227z"/>
	<path style="fill:#009EE3;" d="M32.239,41.076c-0.113,0.167-0.217,0.367-0.31,0.603c-0.082,0.203-0.154,0.456-0.219,0.758
		c-0.065,0.303-0.098,0.659-0.098,1.068c0,0.248,0.037,0.471,0.11,0.67c0.073,0.199,0.17,0.374,0.292,0.526
		c0.122,0.152,0.261,0.284,0.417,0.396c0.156,0.112,0.317,0.204,0.484,0.277s0.33,0.129,0.49,0.167
		c0.16,0.039,0.305,0.063,0.435,0.07c0.032,0.004,0.062,0.006,0.088,0.006s0.054,0,0.082,0c0.28,0,0.576-0.048,0.889-0.143
		c0.313-0.096,0.601-0.246,0.864-0.451c0.264-0.204,0.482-0.468,0.654-0.791c0.173-0.322,0.259-0.713,0.259-1.172
		c0-0.32-0.006-0.697-0.018-1.132s-0.027-0.896-0.046-1.385c-0.018-0.489-0.04-0.993-0.064-1.513
		c-0.024-0.52-0.048-1.026-0.073-1.521c-0.057-1.156-0.122-2.366-0.195-3.628l1.589-0.299c0.032,0.775,0.064,1.569,0.097,2.381
		c0.012,0.345,0.025,0.71,0.04,1.096c0.014,0.385,0.028,0.778,0.042,1.181c0.014,0.401,0.027,0.805,0.04,1.208
		c0.012,0.404,0.024,0.797,0.037,1.178c0.012,0.081,0.037,0.179,0.073,0.292c0.037,0.114,0.094,0.223,0.173,0.326
		s0.183,0.192,0.311,0.268s0.289,0.112,0.484,0.112c0.109,0,0.212,0.021,0.307,0.064c0.096,0.042,0.179,0.1,0.25,0.17
		c0.071,0.071,0.126,0.154,0.167,0.25s0.061,0.195,0.061,0.301c0,0.11-0.021,0.212-0.061,0.305
		c-0.041,0.094-0.096,0.176-0.167,0.246c-0.071,0.071-0.154,0.126-0.25,0.165c-0.095,0.038-0.198,0.058-0.307,0.058
		c-0.219,0-0.408-0.015-0.566-0.043c-0.159-0.028-0.303-0.068-0.433-0.121v0.066c0,0.512-0.062,0.968-0.186,1.37
		c-0.124,0.401-0.291,0.754-0.502,1.056c-0.211,0.303-0.456,0.559-0.733,0.771c-0.278,0.211-0.569,0.383-0.874,0.517
		c-0.305,0.135-0.614,0.23-0.928,0.289c-0.315,0.06-0.614,0.089-0.898,0.089c-0.033,0-0.071,0-0.116,0
		c-0.045,0-0.083-0.002-0.116-0.006c-0.255-0.021-0.523-0.066-0.803-0.138c-0.28-0.07-0.554-0.171-0.822-0.301
		c-0.268-0.13-0.522-0.291-0.764-0.484c-0.241-0.192-0.453-0.422-0.633-0.688c-0.181-0.266-0.325-0.569-0.432-0.91
		c-0.108-0.341-0.16-0.725-0.155-1.15c0.004-0.539,0.043-1,0.119-1.382c0.075-0.381,0.157-0.693,0.247-0.938
		c0.105-0.283,0.223-0.521,0.353-0.712L32.239,41.076z"/>
	<path style="fill:#009EE3;" d="M38.345,42.403c0-0.109,0.021-0.212,0.061-0.308c0.041-0.095,0.095-0.177,0.164-0.246
		c0.069-0.069,0.151-0.124,0.247-0.164c0.096-0.041,0.198-0.062,0.308-0.062h0.462c0.316,0,0.62-0.014,0.91-0.042
		s0.548-0.089,0.773-0.18c0.225-0.092,0.406-0.222,0.542-0.39c0.136-0.168,0.21-0.391,0.222-0.667c0.004-0.109,0-0.217-0.012-0.322
		s-0.032-0.218-0.058-0.338c-0.026-0.119-0.06-0.25-0.101-0.393c-0.041-0.142-0.087-0.307-0.14-0.493l1.491-0.42
		c0.053,0.195,0.095,0.372,0.128,0.533c0.032,0.16,0.059,0.314,0.079,0.462c0.02,0.148,0.038,0.3,0.052,0.454
		s0.029,0.324,0.045,0.511c0.012,0.138,0.031,0.283,0.055,0.436c0.024,0.152,0.066,0.291,0.125,0.417
		c0.059,0.126,0.14,0.229,0.244,0.311s0.24,0.121,0.411,0.121c0.109,0,0.212,0.021,0.308,0.062c0.095,0.04,0.178,0.095,0.25,0.164
		c0.071,0.069,0.126,0.151,0.167,0.246c0.041,0.096,0.061,0.198,0.061,0.308s-0.021,0.212-0.064,0.308
		c-0.042,0.096-0.099,0.178-0.17,0.246c-0.071,0.069-0.153,0.124-0.247,0.165c-0.093,0.04-0.192,0.061-0.298,0.061
		c-0.398,0-0.734-0.065-1.008-0.194c-0.274-0.13-0.504-0.299-0.69-0.506c-0.171,0.13-0.373,0.239-0.606,0.329
		c-0.233,0.089-0.486,0.161-0.758,0.216s-0.554,0.095-0.846,0.119c-0.292,0.024-0.58,0.036-0.864,0.036h-0.462
		c-0.11,0-0.212-0.021-0.308-0.061c-0.095-0.041-0.177-0.096-0.247-0.165c-0.069-0.068-0.124-0.15-0.164-0.246
		S38.345,42.513,38.345,42.403z M41.766,36.377l-1.035,1.035l-1.047-1.041l1.035-1.041L41.766,36.377z M44.066,36.384l-1.035,1.041
		l-1.047-1.048l1.035-1.034L44.066,36.384z"/>
	<path style="fill:#009EE3;" d="M43.622,42.397c0-0.109,0.02-0.211,0.061-0.305c0.041-0.093,0.097-0.174,0.167-0.243
		c0.071-0.069,0.153-0.124,0.247-0.164c0.093-0.041,0.195-0.062,0.304-0.062h0.055c0.117,0,0.293-0.005,0.526-0.015
		c0.233-0.011,0.5-0.023,0.8-0.04c-0.199-0.256-0.346-0.535-0.441-0.84c-0.095-0.305-0.143-0.614-0.143-0.932
		c0-0.223,0.024-0.445,0.073-0.666c0.049-0.222,0.122-0.432,0.219-0.63c0.097-0.199,0.218-0.384,0.362-0.554
		c0.144-0.171,0.311-0.319,0.502-0.444c-0.033-0.009-0.072-0.023-0.119-0.046c-0.047-0.022-0.092-0.046-0.137-0.07
		c-0.048-0.024-0.101-0.053-0.158-0.085l0.901-1.363c0.012,0,0.068,0.021,0.167,0.061c0.1,0.041,0.227,0.096,0.383,0.164
		c0.156,0.069,0.333,0.148,0.53,0.237c0.197,0.09,0.401,0.182,0.612,0.277s0.422,0.19,0.633,0.286s0.408,0.184,0.59,0.265
		c0.382,0.171,0.715,0.321,1.001,0.453c0.286,0.133,0.542,0.262,0.767,0.39s0.426,0.263,0.603,0.405
		c0.177,0.142,0.344,0.311,0.502,0.505c0.207,0.252,0.351,0.524,0.433,0.819c0.081,0.294,0.122,0.581,0.122,0.861
		c0,0.422-0.109,0.821-0.329,1.198c-0.219,0.378-0.54,0.692-0.962,0.944c-0.118,0.068-0.262,0.127-0.432,0.176
		s-0.347,0.09-0.53,0.122s-0.364,0.057-0.544,0.073c-0.181,0.016-0.34,0.024-0.478,0.024c-0.17,0-0.36-0.009-0.569-0.024
		c-0.209-0.017-0.42-0.04-0.633-0.07s-0.421-0.07-0.624-0.118c-0.203-0.049-0.383-0.108-0.542-0.177
		c-0.191,0.061-0.408,0.113-0.651,0.158s-0.501,0.083-0.773,0.115c-0.272,0.032-0.549,0.057-0.831,0.073s-0.559,0.024-0.831,0.024
		h-0.055c-0.109,0-0.211-0.021-0.304-0.061c-0.093-0.041-0.175-0.097-0.247-0.168c-0.071-0.07-0.126-0.154-0.167-0.249
		C43.642,42.609,43.622,42.507,43.622,42.397z M47.846,38.325c-0.158-0.024-0.314,0.012-0.469,0.109s-0.291,0.229-0.411,0.393
		c-0.12,0.165-0.213,0.348-0.28,0.548c-0.067,0.201-0.09,0.393-0.07,0.575v-0.006c0.016,0.13,0.054,0.258,0.113,0.384
		c0.059,0.126,0.132,0.242,0.219,0.35c0.087,0.107,0.186,0.2,0.295,0.277s0.225,0.134,0.347,0.17
		c0.154-0.077,0.307-0.157,0.459-0.24c0.152-0.083,0.29-0.186,0.414-0.308c0.124-0.121,0.229-0.271,0.317-0.45
		c0.087-0.179,0.145-0.401,0.173-0.67c0.012-0.105-0.018-0.22-0.091-0.344s-0.167-0.241-0.28-0.353
		c-0.114-0.112-0.238-0.208-0.372-0.289S47.956,38.342,47.846,38.325z M50.427,39.506c0,0.382-0.062,0.756-0.186,1.123
		c-0.124,0.367-0.308,0.703-0.551,1.008c0.069,0.008,0.136,0.014,0.201,0.018c0.065,0.005,0.128,0.007,0.188,0.007
		c0.26,0,0.498-0.029,0.715-0.089c0.217-0.059,0.405-0.137,0.563-0.234c0.158-0.097,0.282-0.211,0.372-0.341
		c0.089-0.13,0.134-0.268,0.134-0.414c0-0.129-0.038-0.264-0.113-0.401s-0.178-0.272-0.307-0.404
		c-0.13-0.132-0.284-0.258-0.463-0.378c-0.179-0.119-0.371-0.229-0.578-0.325c0.008,0.068,0.014,0.141,0.018,0.216
		S50.427,39.438,50.427,39.506z"/>
	<path style="fill:#009EE3;" d="M60.417,42.093c0,0.228-0.096,0.453-0.286,0.676c-0.244,0.271-0.556,0.408-0.938,0.408
		c-0.434,0-0.775-0.165-1.022-0.493c-0.219-0.284-0.329-0.642-0.329-1.071c0-1.015,0.545-1.909,1.637-2.685
		c0.041,0.028,0.097,0.071,0.17,0.128s0.15,0.118,0.231,0.183c0.081,0.064,0.162,0.13,0.243,0.194
		c0.082,0.065,0.148,0.118,0.201,0.158c-0.714,0.516-1.126,0.99-1.236,1.425c0.049-0.008,0.1-0.014,0.152-0.019
		c0.053-0.004,0.113-0.006,0.183-0.006c0.613,0.094,0.943,0.457,0.992,1.09V42.093z"/>
	<path style="fill:#009EE3;" d="M63.794,39.135c0.138,0.39,0.26,0.781,0.365,1.175c0.045,0.166,0.089,0.342,0.134,0.526
		c0.044,0.185,0.084,0.37,0.119,0.557c0.034,0.188,0.062,0.371,0.082,0.552s0.03,0.35,0.03,0.508c0,0.365-0.056,0.722-0.167,1.068
		c-0.112,0.347-0.266,0.682-0.463,1.004c-0.197,0.323-0.43,0.63-0.7,0.923c-0.27,0.292-0.563,0.567-0.88,0.827
		s-0.651,0.502-1.004,0.725c-0.353,0.224-0.71,0.424-1.071,0.603l-0.694-1.394c0.288-0.143,0.572-0.3,0.852-0.472
		c0.28-0.173,0.547-0.356,0.801-0.551c0.253-0.195,0.489-0.401,0.706-0.618c0.217-0.217,0.404-0.44,0.56-0.67
		c0.156-0.229,0.279-0.464,0.368-0.706c0.089-0.241,0.134-0.487,0.134-0.739c0-0.231-0.026-0.475-0.079-0.73
		s-0.116-0.509-0.188-0.761c-0.073-0.252-0.15-0.492-0.231-0.722c-0.082-0.229-0.148-0.433-0.201-0.611L63.794,39.135z
		 M64.044,36.572l-1.163,1.162l-1.169-1.168l1.163-1.163L64.044,36.572z"/>
	<path style="fill:#009EE3;" d="M67.069,33.468c0.203,1.538,0.309,2.977,0.317,4.315c0.008,2.155-0.022,3.869-0.091,5.144
		L65.7,43.171c0.122-1.875,0.158-3.445,0.109-4.712c-0.065-1.655-0.167-3.148-0.304-4.479L67.069,33.468z"/>
	<path style="fill:#009EE3;" d="M68.226,45.922c0.597-0.118,1.135-0.275,1.616-0.472c0.48-0.197,0.897-0.417,1.25-0.66
		c0.353-0.244,0.64-0.504,0.861-0.779c0.221-0.276,0.369-0.552,0.441-0.828c-0.102,0-0.207,0-0.316,0
		c-0.11,0-0.219-0.002-0.329-0.006c-0.11-0.004-0.215-0.008-0.317-0.01c-0.101-0.002-0.19-0.007-0.268-0.015
		c-0.451-0.032-0.856-0.128-1.217-0.286c-0.361-0.158-0.651-0.373-0.871-0.646c-0.154-0.194-0.265-0.412-0.332-0.651
		s-0.101-0.49-0.101-0.755c0-0.207,0.019-0.416,0.058-0.627s0.093-0.417,0.165-0.617c0.071-0.201,0.153-0.391,0.247-0.569
		s0.195-0.341,0.304-0.487c0.219-0.279,0.463-0.492,0.73-0.636c0.268-0.145,0.548-0.216,0.84-0.216c0.629,0,1.203,0.279,1.723,0.84
		c0.187,0.207,0.354,0.441,0.502,0.703c0.148,0.262,0.274,0.541,0.377,0.84c0.104,0.298,0.183,0.609,0.237,0.935
		c0.055,0.324,0.082,0.653,0.082,0.985c0,0.102-0.003,0.203-0.009,0.305c-0.006,0.102-0.013,0.199-0.021,0.292
		c-0.073,0.69-0.264,1.313-0.572,1.869c-0.309,0.556-0.701,1.04-1.178,1.451c-0.477,0.412-1.019,0.75-1.625,1.014
		c-0.606,0.264-1.245,0.446-1.914,0.548L68.226,45.922z M70.989,39.227c-0.105,0-0.219,0.044-0.341,0.134
		c-0.122,0.089-0.233,0.203-0.334,0.344c-0.102,0.14-0.186,0.295-0.253,0.466c-0.067,0.17-0.1,0.337-0.1,0.499
		c0,0.17,0.04,0.312,0.119,0.423s0.18,0.202,0.304,0.271c0.124,0.069,0.264,0.121,0.42,0.155c0.156,0.035,0.312,0.061,0.466,0.076
		c0.085,0.004,0.178,0.009,0.28,0.013s0.206,0.006,0.313,0.006s0.214,0,0.32,0s0.205-0.004,0.298-0.013
		c-0.021-0.227-0.063-0.441-0.128-0.645s-0.141-0.392-0.229-0.566c-0.087-0.175-0.183-0.332-0.286-0.472
		c-0.103-0.14-0.2-0.261-0.289-0.362v0.006c-0.069-0.072-0.153-0.146-0.252-0.222S71.095,39.227,70.989,39.227z"/>
	<path style="fill:#009EE3;" d="M79.109,43.183c-0.049,0-0.112-0.001-0.188-0.003c-0.077-0.002-0.162-0.012-0.253-0.027
		c-0.091-0.017-0.189-0.042-0.295-0.076c-0.106-0.034-0.209-0.084-0.311-0.149c-0.053,0.512-0.208,1.002-0.466,1.47
		c-0.258,0.469-0.583,0.908-0.977,1.318s-0.835,0.785-1.324,1.126c-0.489,0.341-0.991,0.64-1.506,0.895l-0.682-1.406
		c0.284-0.146,0.569-0.304,0.855-0.475c0.286-0.17,0.559-0.352,0.819-0.545c0.259-0.192,0.502-0.396,0.727-0.611
		c0.226-0.215,0.42-0.438,0.584-0.666c0.165-0.229,0.294-0.466,0.39-0.71c0.095-0.243,0.143-0.493,0.143-0.748
		c0-0.033-0.001-0.066-0.003-0.101c-0.002-0.034-0.005-0.068-0.009-0.101v0.006c-0.028-0.227-0.076-0.457-0.143-0.69
		s-0.139-0.46-0.216-0.679c-0.077-0.22-0.154-0.43-0.231-0.63c-0.077-0.201-0.142-0.383-0.195-0.545l1.461-0.608
		c0.158,0.475,0.307,0.867,0.447,1.178c0.14,0.31,0.281,0.556,0.423,0.736s0.287,0.307,0.436,0.377
		c0.148,0.071,0.311,0.106,0.49,0.106h0.031c0.109,0,0.212,0.021,0.307,0.064c0.095,0.042,0.179,0.1,0.25,0.17
		c0.071,0.071,0.127,0.154,0.167,0.25s0.061,0.195,0.061,0.301c0,0.11-0.021,0.212-0.061,0.305
		c-0.041,0.094-0.097,0.176-0.167,0.246c-0.071,0.071-0.155,0.126-0.252,0.165C79.322,43.163,79.219,43.183,79.109,43.183z"/>
	<path style="fill:#009EE3;" d="M78.281,42.403c0-0.109,0.021-0.212,0.061-0.308c0.041-0.095,0.097-0.177,0.167-0.246
		s0.153-0.124,0.247-0.164c0.093-0.041,0.195-0.062,0.304-0.062h0.676h0.292c0.199,0,0.41-0.007,0.633-0.021
		c0.223-0.015,0.437-0.043,0.642-0.086c0.205-0.042,0.391-0.102,0.557-0.177c0.167-0.074,0.29-0.171,0.372-0.289
		c0.061-0.089,0.092-0.209,0.094-0.358c0.002-0.15-0.018-0.314-0.061-0.493c-0.042-0.179-0.099-0.366-0.17-0.563
		c-0.071-0.196-0.147-0.388-0.228-0.572s-0.161-0.358-0.241-0.523c-0.079-0.164-0.145-0.303-0.198-0.417l1.418-0.699
		c0.109,0.194,0.218,0.429,0.326,0.702c0.107,0.274,0.202,0.558,0.283,0.85c0.081,0.292,0.147,0.58,0.198,0.864
		c0.05,0.284,0.076,0.536,0.076,0.755c0,0.394-0.067,0.745-0.201,1.053c-0.154,0.357-0.371,0.65-0.651,0.88
		c-0.28,0.229-0.613,0.4-0.998,0.515c-0.118,0.032-0.265,0.058-0.441,0.076c-0.177,0.018-0.356,0.032-0.539,0.042
		s-0.356,0.017-0.521,0.019c-0.165,0.002-0.292,0.003-0.38,0.003h-0.883h-0.055c-0.109,0-0.211-0.021-0.304-0.061
		c-0.093-0.041-0.176-0.096-0.247-0.165c-0.071-0.068-0.127-0.15-0.167-0.246S78.281,42.513,78.281,42.403z M80.168,46.22
		l-1.035-1.041l1.047-1.04l1.035,1.034L80.168,46.22z M81.331,45.977l0.95,0.949l-0.956,0.956l-0.949-0.949L81.331,45.977z
		 M82.469,46.208l-1.035-1.035l1.047-1.047l1.035,1.041L82.469,46.208z"/>
	<path style="fill:#009EE3;" d="M98.132,43.183c-0.463,0-0.885-0.085-1.266-0.256c0.004,0.337-0.025,0.682-0.086,1.035
		c-0.061,0.353-0.16,0.691-0.298,1.017c-0.138,0.324-0.315,0.626-0.532,0.903c-0.217,0.278-0.48,0.511-0.789,0.697h0.006
		c-0.191,0.13-0.396,0.241-0.615,0.335c-0.219,0.093-0.452,0.17-0.697,0.231c-0.246,0.061-0.504,0.108-0.776,0.143
		c-0.272,0.034-0.56,0.06-0.864,0.076c-0.678,0-1.259-0.081-1.744-0.243s-0.906-0.396-1.263-0.7c-0.43-0.394-0.75-0.857-0.961-1.391
		c-0.211-0.534-0.317-1.097-0.317-1.689c0-0.341,0.022-0.662,0.067-0.965c0.044-0.302,0.111-0.6,0.201-0.892
		s0.203-0.591,0.341-0.895c0.138-0.305,0.3-0.631,0.487-0.98l1.278,0.926c-0.125,0.227-0.25,0.476-0.371,0.745
		c-0.122,0.271-0.229,0.55-0.32,0.84s-0.158,0.582-0.201,0.874s-0.046,0.572-0.009,0.84c0.016,0.098,0.046,0.214,0.088,0.35
		s0.105,0.277,0.188,0.424c0.083,0.146,0.189,0.291,0.317,0.435c0.127,0.145,0.283,0.272,0.465,0.384s0.397,0.203,0.643,0.273
		c0.245,0.071,0.528,0.106,0.849,0.106c0.048,0,0.083,0,0.103,0c0.021,0,0.041-0.002,0.061-0.006
		c0.406-0.021,0.783-0.061,1.132-0.121c0.349-0.062,0.662-0.155,0.94-0.283c0.278-0.128,0.516-0.295,0.715-0.499
		c0.199-0.205,0.353-0.46,0.462-0.765c0.102-0.284,0.143-0.585,0.125-0.903c-0.019-0.318-0.079-0.65-0.183-0.995
		c-0.104-0.346-0.239-0.702-0.405-1.071c-0.167-0.369-0.345-0.745-0.536-1.126l1.351-0.858l0.523,1.004
		c0.183,0.361,0.359,0.64,0.529,0.834s0.336,0.338,0.494,0.429c0.158,0.092,0.309,0.145,0.453,0.159
		c0.145,0.014,0.281,0.021,0.41,0.021c0.109,0,0.213,0.021,0.309,0.062c0.094,0.04,0.178,0.095,0.248,0.164
		c0.072,0.069,0.127,0.151,0.168,0.246c0.041,0.096,0.061,0.198,0.061,0.308s-0.02,0.211-0.061,0.305
		c-0.041,0.093-0.096,0.176-0.168,0.246c-0.07,0.071-0.154,0.127-0.248,0.168C98.345,43.162,98.241,43.183,98.132,43.183z
		 M93.591,39.506l-1.163,1.163L91.26,39.5l1.163-1.163L93.591,39.506z"/>
	<path style="fill:#009EE3;" d="M97.085,42.403c0-0.109,0.021-0.212,0.061-0.308c0.041-0.095,0.097-0.177,0.168-0.246
		s0.153-0.124,0.246-0.164c0.094-0.041,0.195-0.062,0.305-0.062h0.676h0.292c0.199,0,0.41-0.007,0.633-0.021
		c0.224-0.015,0.438-0.043,0.643-0.086c0.205-0.042,0.391-0.102,0.557-0.177c0.167-0.074,0.29-0.171,0.372-0.289
		c0.061-0.089,0.092-0.209,0.094-0.358c0.002-0.15-0.019-0.314-0.061-0.493c-0.043-0.179-0.1-0.366-0.171-0.563
		c-0.07-0.196-0.146-0.388-0.228-0.572c-0.082-0.185-0.162-0.358-0.241-0.523c-0.079-0.164-0.145-0.303-0.197-0.417l1.418-0.699
		c0.109,0.194,0.218,0.429,0.326,0.702c0.107,0.274,0.201,0.558,0.282,0.85s0.147,0.58,0.198,0.864s0.076,0.536,0.076,0.755
		c0,0.394-0.067,0.745-0.201,1.053c-0.154,0.357-0.371,0.65-0.651,0.88c-0.279,0.229-0.612,0.4-0.998,0.515
		c-0.118,0.032-0.265,0.058-0.441,0.076c-0.177,0.018-0.356,0.032-0.539,0.042c-0.182,0.01-0.355,0.017-0.52,0.019
		c-0.165,0.002-0.292,0.003-0.381,0.003h-0.883h-0.055c-0.109,0-0.211-0.021-0.305-0.061c-0.093-0.041-0.175-0.096-0.246-0.165
		c-0.071-0.068-0.127-0.15-0.168-0.246C97.105,42.615,97.085,42.513,97.085,42.403z M100.354,45.1l-1.034,1.035l-1.047-1.041
		l1.034-1.041L100.354,45.1z M102.655,45.106l-1.035,1.04l-1.047-1.047l1.034-1.034L102.655,45.106z"/>
	<path style="fill:#009EE3;" d="M111.598,41.43c0.129,0.069,0.257,0.116,0.383,0.143s0.246,0.044,0.359,0.052h-0.013h0.056
		c0.105,0,0.205,0.021,0.301,0.062c0.096,0.04,0.179,0.096,0.25,0.167c0.07,0.071,0.128,0.153,0.17,0.247
		c0.043,0.093,0.064,0.194,0.064,0.304s-0.021,0.212-0.064,0.308c-0.042,0.096-0.1,0.178-0.17,0.246
		c-0.071,0.069-0.154,0.124-0.25,0.165c-0.096,0.04-0.195,0.061-0.301,0.061h-0.056c-0.105,0-0.241-0.006-0.407-0.019
		c-0.167-0.012-0.345-0.048-0.536-0.106c-0.19-0.059-0.383-0.148-0.578-0.271c-0.194-0.122-0.375-0.29-0.542-0.505
		c-0.288,0.288-0.626,0.53-1.013,0.727c-0.388,0.197-0.798,0.348-1.229,0.451c-0.433,0.104-0.873,0.161-1.321,0.173
		c-0.448,0.013-0.876-0.022-1.281-0.104l0.444-1.479c0.15,0.02,0.304,0.036,0.46,0.049c0.155,0.012,0.313,0.017,0.469,0.015
		c0.155-0.002,0.312-0.014,0.468-0.036s0.312-0.061,0.466-0.113c-0.117-0.454-0.262-0.899-0.432-1.336
		c-0.171-0.436-0.354-0.855-0.551-1.257c-0.197-0.401-0.401-0.783-0.612-1.145s-0.419-0.695-0.624-1.004s-0.398-0.588-0.581-0.837
		c-0.183-0.25-0.345-0.464-0.487-0.643l1.096-1.132c0.154,0.247,0.365,0.57,0.634,0.968c0.268,0.397,0.569,0.9,0.906,1.51
		c0.216,0.386,0.416,0.771,0.603,1.159c0.188,0.388,0.357,0.766,0.512,1.136c0.154,0.369,0.29,0.726,0.408,1.071
		c0.117,0.345,0.213,0.665,0.286,0.961c0.109-0.072,0.219-0.155,0.328-0.246c0.109-0.092,0.208-0.19,0.295-0.298
		c0.088-0.108,0.156-0.221,0.207-0.338c0.051-0.118,0.072-0.242,0.064-0.372c-0.045-0.637-0.099-1.249-0.161-1.838
		c-0.063-0.588-0.129-1.147-0.198-1.677s-0.138-1.026-0.207-1.491s-0.134-0.894-0.194-1.288l1.546-0.292
		c0,0.009,0.012,0.122,0.036,0.341c0.024,0.22,0.056,0.511,0.095,0.874c0.038,0.363,0.08,0.78,0.125,1.251
		c0.044,0.471,0.09,0.961,0.137,1.473s0.09,1.024,0.131,1.54c0.04,0.516,0.075,1,0.104,1.455c0.016,0.215,0.051,0.398,0.104,0.551
		s0.156,0.274,0.311,0.368H111.598z"/>
	<path style="fill:#009EE3;" d="M111.506,42.403c0-0.109,0.02-0.212,0.061-0.308c0.04-0.095,0.097-0.177,0.167-0.246
		c0.071-0.069,0.153-0.124,0.247-0.164c0.093-0.041,0.194-0.062,0.304-0.062h0.627h0.274c0.17,0,0.339-0.007,0.505-0.021
		c0.167-0.015,0.323-0.044,0.469-0.089c0.146-0.045,0.275-0.107,0.387-0.188s0.198-0.187,0.259-0.316
		c0.045-0.09,0.066-0.224,0.066-0.402c0-0.105-0.021-0.253-0.063-0.444c-0.043-0.19-0.102-0.401-0.177-0.633
		s-0.162-0.471-0.262-0.718c-0.1-0.248-0.204-0.479-0.313-0.694l1.406-0.693c0.102,0.23,0.203,0.477,0.305,0.736
		c0.101,0.26,0.191,0.526,0.271,0.8c0.079,0.274,0.144,0.549,0.191,0.825c0.049,0.276,0.073,0.546,0.073,0.81
		c0,0.394-0.066,0.745-0.201,1.053c-0.153,0.357-0.371,0.65-0.65,0.88c-0.28,0.229-0.613,0.4-0.999,0.515
		c-0.231,0.064-0.455,0.104-0.672,0.118c-0.218,0.015-0.42,0.021-0.606,0.021h-0.834h-0.055c-0.109,0-0.211-0.021-0.304-0.061
		c-0.094-0.041-0.176-0.096-0.247-0.165c-0.07-0.068-0.127-0.15-0.167-0.246C111.525,42.615,111.506,42.513,111.506,42.403z
		 M115.498,35.403l-1.162,1.163l-1.169-1.169l1.163-1.163L115.498,35.403z"/>
	<path style="fill:#009EE3;" d="M116.168,34.021c0-0.061,0.006-0.104,0.019-0.128c0.008-0.024,0.021-0.062,0.039-0.112
		s0.04-0.104,0.064-0.161c0.023-0.057,0.051-0.117,0.079-0.18s0.057-0.119,0.085-0.167c0.138-0.216,0.299-0.389,0.483-0.521
		s0.371-0.219,0.558-0.259c0.04-0.009,0.088-0.014,0.143-0.016s0.101-0.003,0.137-0.003c0.187,0,0.355,0.022,0.506,0.067
		c0.149,0.044,0.29,0.095,0.42,0.151h-0.006c0.105,0.045,0.21,0.094,0.313,0.146s0.214,0.081,0.331,0.085
		c0.086,0.005,0.173-0.021,0.262-0.079c0.09-0.057,0.174-0.124,0.253-0.204c0.079-0.079,0.148-0.155,0.207-0.23
		s0.101-0.129,0.125-0.162l0.821,0.53c-0.004,0.012-0.026,0.048-0.066,0.106c-0.041,0.059-0.097,0.13-0.168,0.213
		s-0.157,0.173-0.259,0.268c-0.102,0.096-0.214,0.183-0.338,0.262c-0.123,0.079-0.259,0.145-0.404,0.195
		c-0.146,0.051-0.301,0.074-0.463,0.069c-0.175-0.004-0.335-0.027-0.48-0.069c-0.146-0.043-0.282-0.087-0.408-0.131l-0.098-0.037
		h0.007c-0.062-0.024-0.119-0.051-0.174-0.079s-0.109-0.055-0.164-0.079s-0.11-0.042-0.165-0.055
		c-0.055-0.012-0.11-0.014-0.167-0.006c-0.109,0.008-0.196,0.05-0.259,0.125s-0.112,0.16-0.149,0.255
		c-0.036,0.096-0.063,0.19-0.082,0.283c-0.018,0.094-0.035,0.165-0.052,0.213L116.168,34.021z M119.333,34.399
		c0.171,1.201,0.26,2.453,0.268,3.755c0.009,2.091-0.006,3.673-0.042,4.748l-1.595,0.237c0.089-1.659,0.109-3.102,0.061-4.327
		c-0.065-1.632-0.15-2.938-0.256-3.92L119.333,34.399z"/>
	<path style="fill:#009EE3;" d="M129.073,47.37c-0.612-0.028-1.155-0.115-1.628-0.262c-0.473-0.146-0.888-0.377-1.245-0.693
		c-0.219-0.195-0.409-0.41-0.569-0.646s-0.294-0.485-0.401-0.749s-0.187-0.538-0.237-0.824s-0.076-0.579-0.076-0.88
		c0-0.641,0.096-1.28,0.286-1.917c0.19-0.638,0.473-1.238,0.846-1.802l1.199,0.87c-0.073,0.102-0.163,0.252-0.271,0.45
		c-0.107,0.199-0.211,0.429-0.311,0.688s-0.184,0.539-0.253,0.84c-0.068,0.3-0.104,0.603-0.104,0.907
		c0,0.36,0.076,0.689,0.229,0.985c0.152,0.297,0.358,0.551,0.618,0.765c0.26,0.213,0.561,0.379,0.903,0.499
		c0.343,0.119,0.705,0.184,1.087,0.191c0.454,0.008,0.886-0.054,1.293-0.186c0.408-0.132,0.763-0.315,1.063-0.551
		c0.301-0.235,0.536-0.514,0.706-0.834c0.171-0.32,0.248-0.668,0.231-1.041c-0.008-0.187-0.04-0.395-0.095-0.624
		s-0.12-0.462-0.197-0.697s-0.159-0.465-0.247-0.69c-0.087-0.226-0.169-0.425-0.246-0.6s-0.143-0.314-0.195-0.42
		s-0.081-0.158-0.085-0.158l1.431-0.798c0.012,0.017,0.045,0.084,0.098,0.201c0.053,0.118,0.115,0.271,0.188,0.463
		c0.073,0.19,0.152,0.41,0.237,0.657s0.165,0.507,0.24,0.779c0.075,0.271,0.141,0.549,0.195,0.831
		c0.055,0.281,0.088,0.555,0.101,0.818c0.02,0.369-0.007,0.739-0.08,1.11c-0.072,0.372-0.192,0.725-0.358,1.06
		c-0.167,0.335-0.381,0.646-0.643,0.935s-0.572,0.534-0.932,0.739c-0.358,0.205-0.77,0.36-1.232,0.466
		C130.157,47.36,129.642,47.398,129.073,47.37z M130.595,39.099l-1.162,1.162l-1.169-1.169l1.163-1.162L130.595,39.099z"/>
	<path style="fill:#009EE3;" d="M134.387,45.922c0.597-0.118,1.135-0.275,1.616-0.472c0.48-0.197,0.897-0.417,1.251-0.66
		c0.353-0.244,0.64-0.504,0.861-0.779c0.221-0.276,0.368-0.552,0.441-0.828c-0.102,0-0.207,0-0.317,0
		c-0.109,0-0.219-0.002-0.328-0.006s-0.215-0.008-0.316-0.01s-0.191-0.007-0.269-0.015c-0.45-0.032-0.855-0.128-1.217-0.286
		s-0.651-0.373-0.87-0.646c-0.154-0.194-0.266-0.412-0.332-0.651c-0.067-0.239-0.101-0.49-0.101-0.755
		c0-0.207,0.02-0.416,0.058-0.627c0.039-0.211,0.094-0.417,0.165-0.617c0.07-0.201,0.152-0.391,0.246-0.569
		c0.093-0.179,0.194-0.341,0.305-0.487c0.219-0.279,0.462-0.492,0.73-0.636c0.268-0.145,0.548-0.216,0.84-0.216
		c0.629,0,1.203,0.279,1.723,0.84c0.17,0.19,0.324,0.403,0.462,0.639c0.139,0.235,0.258,0.487,0.359,0.755s0.184,0.547,0.247,0.837
		c0.063,0.29,0.102,0.588,0.118,0.892h0.286c0.109,0,0.212,0.021,0.308,0.062c0.095,0.04,0.179,0.095,0.249,0.164
		c0.071,0.069,0.128,0.152,0.171,0.25c0.043,0.097,0.063,0.2,0.063,0.31c0,0.105-0.021,0.205-0.063,0.299
		c-0.043,0.093-0.1,0.176-0.171,0.246c-0.07,0.071-0.154,0.127-0.249,0.168c-0.096,0.04-0.198,0.061-0.308,0.061h-0.408
		c-0.138,0.597-0.37,1.136-0.696,1.619c-0.327,0.482-0.72,0.904-1.178,1.263c-0.459,0.359-0.971,0.654-1.537,0.886
		s-1.158,0.396-1.774,0.493L134.387,45.922z M137.15,39.227c-0.105,0-0.22,0.044-0.341,0.134c-0.122,0.089-0.233,0.203-0.335,0.344
		c-0.102,0.14-0.186,0.295-0.253,0.466c-0.066,0.17-0.101,0.337-0.101,0.499c0,0.17,0.04,0.312,0.119,0.423s0.181,0.202,0.305,0.271
		c0.123,0.069,0.264,0.121,0.42,0.155c0.156,0.035,0.311,0.061,0.465,0.076c0.086,0.004,0.179,0.009,0.28,0.013
		s0.206,0.006,0.313,0.006s0.214,0,0.319,0s0.205-0.004,0.299-0.013c-0.021-0.227-0.063-0.441-0.128-0.645
		c-0.065-0.203-0.142-0.392-0.229-0.566s-0.183-0.332-0.286-0.472s-0.199-0.261-0.289-0.362v0.006
		c-0.069-0.072-0.153-0.146-0.253-0.222C137.358,39.264,137.256,39.227,137.15,39.227z"/>
	<path style="fill:#009EE3;" d="M139.524,42.403c0-0.109,0.02-0.212,0.061-0.308c0.04-0.095,0.096-0.177,0.164-0.246
		c0.069-0.069,0.151-0.124,0.247-0.164c0.095-0.041,0.197-0.062,0.307-0.062h0.463c0.316,0,0.62-0.014,0.91-0.042
		s0.548-0.089,0.773-0.18c0.225-0.092,0.405-0.222,0.541-0.39s0.21-0.391,0.223-0.667c0.004-0.109,0-0.217-0.013-0.322
		c-0.012-0.105-0.031-0.218-0.058-0.338c-0.026-0.119-0.06-0.25-0.101-0.393c-0.04-0.142-0.087-0.307-0.14-0.493l1.491-0.42
		c0.053,0.195,0.096,0.372,0.128,0.533c0.032,0.16,0.059,0.314,0.079,0.462c0.021,0.148,0.037,0.3,0.052,0.454
		c0.014,0.154,0.029,0.324,0.046,0.511c0.012,0.138,0.03,0.283,0.055,0.436s0.065,0.291,0.125,0.417
		c0.059,0.126,0.14,0.229,0.243,0.311s0.24,0.121,0.411,0.121c0.109,0,0.212,0.021,0.307,0.062c0.096,0.04,0.179,0.095,0.25,0.164
		s0.127,0.151,0.167,0.246c0.041,0.096,0.062,0.198,0.062,0.308s-0.021,0.212-0.064,0.308c-0.042,0.096-0.1,0.178-0.17,0.246
		c-0.071,0.069-0.153,0.124-0.247,0.165c-0.093,0.04-0.192,0.061-0.298,0.061c-0.398,0-0.733-0.065-1.008-0.194
		c-0.273-0.13-0.504-0.299-0.69-0.506c-0.171,0.13-0.373,0.239-0.605,0.329c-0.233,0.089-0.486,0.161-0.758,0.216
		c-0.272,0.055-0.555,0.095-0.847,0.119s-0.58,0.036-0.864,0.036h-0.463c-0.109,0-0.212-0.021-0.307-0.061
		c-0.096-0.041-0.178-0.096-0.247-0.165c-0.068-0.068-0.124-0.15-0.164-0.246C139.544,42.615,139.524,42.513,139.524,42.403z
		 M142.391,45.313l-1.034,1.034l-1.047-1.041l1.034-1.041L142.391,45.313z M144.691,45.319l-1.034,1.041l-1.047-1.047l1.034-1.035
		L144.691,45.319z"/>
	<path style="fill:#009EE3;" d="M144.838,42.409c0-0.101,0.019-0.198,0.058-0.292c0.038-0.093,0.091-0.174,0.158-0.243
		c0.066-0.069,0.145-0.126,0.234-0.171c0.089-0.044,0.185-0.07,0.286-0.079c0.243,0,0.459-0.049,0.648-0.146
		c0.188-0.098,0.353-0.228,0.492-0.39c0.141-0.162,0.261-0.347,0.362-0.554s0.19-0.42,0.265-0.64
		c0.075-0.219,0.141-0.436,0.195-0.648s0.104-0.404,0.149-0.575l1.521,0.335c-0.037,0.114-0.084,0.259-0.144,0.436
		c-0.059,0.177-0.116,0.363-0.173,0.56c-0.057,0.197-0.104,0.396-0.141,0.597c-0.036,0.201-0.048,0.382-0.036,0.542
		s0.056,0.29,0.131,0.39s0.198,0.148,0.368,0.148c0.183,0,0.347-0.052,0.493-0.155c0.146-0.103,0.277-0.239,0.393-0.407
		c0.115-0.169,0.217-0.36,0.305-0.575c0.087-0.215,0.162-0.436,0.225-0.66c0.063-0.226,0.116-0.445,0.158-0.661
		c0.043-0.215,0.076-0.407,0.101-0.578l1.425,0.274c-0.013,0.125-0.031,0.258-0.058,0.396c-0.027,0.138-0.055,0.281-0.083,0.429
		c-0.028,0.148-0.053,0.303-0.072,0.463c-0.021,0.16-0.031,0.325-0.031,0.496c0,0.134,0.014,0.26,0.04,0.377
		c0.026,0.118,0.071,0.223,0.134,0.313c0.063,0.092,0.146,0.165,0.25,0.22s0.229,0.084,0.38,0.088c0.288,0,0.523-0.073,0.706-0.219
		c0.183-0.146,0.274-0.369,0.274-0.67c0-0.219-0.029-0.456-0.089-0.712c-0.059-0.256-0.13-0.506-0.213-0.752
		c-0.083-0.245-0.171-0.475-0.265-0.688s-0.175-0.391-0.243-0.533l1.309-0.73c0.024,0.045,0.063,0.127,0.118,0.247
		c0.055,0.119,0.117,0.265,0.186,0.435c0.069,0.171,0.142,0.363,0.217,0.579c0.075,0.215,0.143,0.44,0.204,0.675
		c0.061,0.236,0.111,0.479,0.151,0.728c0.041,0.25,0.062,0.494,0.062,0.733c0,0.378-0.059,0.719-0.174,1.023
		c-0.115,0.304-0.286,0.563-0.512,0.778c-0.225,0.216-0.502,0.381-0.83,0.496c-0.329,0.116-0.706,0.172-1.133,0.168
		c-0.207,0.004-0.393-0.021-0.557-0.073s-0.313-0.125-0.444-0.216c-0.132-0.092-0.25-0.196-0.354-0.313
		c-0.103-0.118-0.195-0.237-0.276-0.359c-0.094,0.138-0.195,0.264-0.305,0.377c-0.109,0.114-0.236,0.214-0.38,0.299
		c-0.145,0.085-0.307,0.153-0.487,0.204s-0.389,0.078-0.624,0.082c-0.199,0.004-0.379-0.02-0.542-0.07
		c-0.162-0.051-0.31-0.12-0.441-0.207s-0.251-0.189-0.358-0.308c-0.107-0.117-0.206-0.241-0.296-0.371
		c-0.077,0.114-0.166,0.225-0.268,0.332s-0.225,0.202-0.371,0.283s-0.321,0.146-0.526,0.197s-0.449,0.076-0.733,0.076h-0.104
		c-0.102-0.004-0.197-0.027-0.286-0.069c-0.09-0.043-0.168-0.1-0.234-0.171c-0.067-0.071-0.12-0.152-0.158-0.243
		C144.856,42.613,144.838,42.515,144.838,42.409z"/>
	<path style="fill:#009EE3;" d="M157.742,33.468c0.203,1.538,0.309,2.977,0.316,4.315c0.009,2.155-0.022,3.869-0.091,5.144
		l-1.595,0.244c0.121-1.875,0.158-3.445,0.109-4.712c-0.065-1.655-0.166-3.148-0.305-4.479L157.742,33.468z"/>
	<path style="fill:#009EE3;" d="M158.899,45.922c0.597-0.118,1.135-0.275,1.616-0.472c0.48-0.197,0.897-0.417,1.251-0.66
		c0.353-0.244,0.64-0.504,0.861-0.779c0.221-0.276,0.368-0.552,0.441-0.828c-0.102,0-0.207,0-0.317,0
		c-0.109,0-0.219-0.002-0.328-0.006s-0.215-0.008-0.316-0.01s-0.191-0.007-0.269-0.015c-0.45-0.032-0.855-0.128-1.217-0.286
		s-0.651-0.373-0.87-0.646c-0.154-0.194-0.266-0.412-0.332-0.651c-0.067-0.239-0.101-0.49-0.101-0.755
		c0-0.207,0.02-0.416,0.058-0.627c0.039-0.211,0.094-0.417,0.165-0.617c0.07-0.201,0.152-0.391,0.246-0.569
		c0.093-0.179,0.194-0.341,0.305-0.487c0.219-0.279,0.462-0.492,0.73-0.636c0.268-0.145,0.548-0.216,0.84-0.216
		c0.629,0,1.203,0.279,1.723,0.84c0.187,0.207,0.354,0.441,0.502,0.703s0.273,0.541,0.377,0.84c0.104,0.298,0.183,0.609,0.237,0.935
		c0.056,0.324,0.083,0.653,0.083,0.985c0,0.102-0.004,0.203-0.01,0.305s-0.013,0.199-0.021,0.292
		c-0.072,0.69-0.264,1.313-0.571,1.869c-0.309,0.556-0.701,1.04-1.179,1.451c-0.477,0.412-1.019,0.75-1.625,1.014
		s-1.244,0.446-1.914,0.548L158.899,45.922z M161.663,39.227c-0.105,0-0.22,0.044-0.341,0.134c-0.122,0.089-0.233,0.203-0.335,0.344
		c-0.102,0.14-0.186,0.295-0.253,0.466c-0.066,0.17-0.101,0.337-0.101,0.499c0,0.17,0.04,0.312,0.119,0.423s0.181,0.202,0.305,0.271
		c0.123,0.069,0.264,0.121,0.42,0.155c0.156,0.035,0.311,0.061,0.465,0.076c0.086,0.004,0.179,0.009,0.28,0.013
		s0.206,0.006,0.313,0.006s0.214,0,0.319,0s0.205-0.004,0.299-0.013c-0.021-0.227-0.063-0.441-0.128-0.645
		c-0.065-0.203-0.142-0.392-0.229-0.566s-0.183-0.332-0.286-0.472s-0.199-0.261-0.289-0.362v0.006
		c-0.069-0.072-0.153-0.146-0.253-0.222C161.871,39.264,161.769,39.227,161.663,39.227z"/>
	<path style="fill:#009EE3;" d="M168.103,39.135c0.138,0.39,0.26,0.781,0.365,1.175c0.044,0.166,0.089,0.342,0.134,0.526
		c0.044,0.185,0.084,0.37,0.118,0.557c0.035,0.188,0.063,0.371,0.083,0.552c0.02,0.181,0.03,0.35,0.03,0.508
		c0,0.365-0.056,0.722-0.168,1.068c-0.111,0.347-0.266,0.682-0.462,1.004c-0.197,0.323-0.431,0.63-0.7,0.923
		c-0.271,0.292-0.563,0.567-0.88,0.827s-0.651,0.502-1.004,0.725c-0.354,0.224-0.711,0.424-1.071,0.603l-0.694-1.394
		c0.288-0.143,0.572-0.3,0.853-0.472c0.279-0.173,0.547-0.356,0.8-0.551c0.254-0.195,0.489-0.401,0.706-0.618
		c0.218-0.217,0.404-0.44,0.561-0.67c0.156-0.229,0.278-0.464,0.368-0.706c0.089-0.241,0.134-0.487,0.134-0.739
		c0-0.231-0.026-0.475-0.079-0.73s-0.115-0.509-0.188-0.761s-0.15-0.492-0.231-0.722c-0.081-0.229-0.148-0.433-0.201-0.611
		L168.103,39.135z"/>
	<path style="fill:#009EE3;" d="M172.327,39.135c0.138,0.39,0.26,0.781,0.365,1.175c0.044,0.166,0.089,0.342,0.134,0.526
		c0.044,0.185,0.084,0.37,0.118,0.557c0.035,0.188,0.063,0.371,0.083,0.552c0.02,0.181,0.03,0.35,0.03,0.508
		c0,0.365-0.056,0.722-0.168,1.068c-0.111,0.347-0.266,0.682-0.462,1.004c-0.197,0.323-0.431,0.63-0.7,0.923
		c-0.271,0.292-0.563,0.567-0.88,0.827s-0.651,0.502-1.004,0.725c-0.354,0.224-0.711,0.424-1.071,0.603l-0.694-1.394
		c0.288-0.143,0.572-0.3,0.853-0.472c0.279-0.173,0.547-0.356,0.8-0.551c0.254-0.195,0.489-0.401,0.706-0.618
		c0.218-0.217,0.404-0.44,0.561-0.67c0.156-0.229,0.278-0.464,0.368-0.706c0.089-0.241,0.134-0.487,0.134-0.739
		c0-0.231-0.026-0.475-0.079-0.73s-0.115-0.509-0.188-0.761s-0.15-0.492-0.231-0.722c-0.081-0.229-0.148-0.433-0.201-0.611
		L172.327,39.135z M172.576,36.572l-1.162,1.162l-1.169-1.168l1.163-1.163L172.576,36.572z"/>
	<path style="fill:#009EE3;" d="M176.582,39.135c0.138,0.39,0.26,0.781,0.365,1.175c0.044,0.166,0.089,0.342,0.134,0.526
		c0.044,0.185,0.084,0.37,0.118,0.557c0.035,0.188,0.063,0.371,0.083,0.552c0.02,0.181,0.03,0.35,0.03,0.508
		c0,0.365-0.056,0.722-0.168,1.068c-0.111,0.347-0.266,0.682-0.462,1.004c-0.197,0.323-0.431,0.63-0.7,0.923
		c-0.271,0.292-0.563,0.567-0.88,0.827s-0.651,0.502-1.004,0.725c-0.354,0.224-0.711,0.424-1.071,0.603l-0.694-1.394
		c0.288-0.143,0.572-0.3,0.853-0.472c0.279-0.173,0.547-0.356,0.8-0.551c0.254-0.195,0.489-0.401,0.706-0.618
		c0.218-0.217,0.404-0.44,0.561-0.67c0.156-0.229,0.278-0.464,0.368-0.706c0.089-0.241,0.134-0.487,0.134-0.739
		c0-0.231-0.026-0.475-0.079-0.73s-0.115-0.509-0.188-0.761s-0.15-0.492-0.231-0.722c-0.081-0.229-0.148-0.433-0.201-0.611
		L176.582,39.135z"/>
</g>
</svg>
