<?xml version="1.0" encoding="utf-8"?>
<!-- Generator: Adobe Illustrator 19.0.0, SVG Export Plug-In . SVG Version: 6.00 Build 0)  -->
<svg version="1.1" id="Layer_1" xmlns="http://www.w3.org/2000/svg" xmlns:xlink="http://www.w3.org/1999/xlink" x="0px" y="0px"
	 viewBox="163.2 336.8 638 169.4" style="enable-background:new 163.2 336.8 638 169.4;" xml:space="preserve">
<style type="text/css">
	.st0{fill:#EE3F5B;}
	.st1{fill:#00B4A4;}
	.st2{fill:url(#SVGID_1_);}
	.st3{fill:url(#SVGID_2_);}
	.st4{fill:url(#SVGID_3_);}
	.st5{fill:url(#SVGID_4_);}
</style>
<g>
	<g>
		<g>
			<polygon class="st0" points="193.1,475.6 199.4,481.1 204.5,475 198.3,469.6 			"/>
			<polygon class="st0" points="198.7,464.3 205.3,470 210.7,463.6 204.2,458.1 			"/>
			<polygon class="st0" points="190.9,458.6 185.3,464.8 191.9,470.5 197.4,464.1 			"/>
			<polygon class="st0" points="248.3,466.5 254.9,472.2 260.5,466 253.8,460 			"/>
			<path class="st0" d="M265.4,414.9c1.8,6.9,2.7,13.8,2.7,20.9c0,1,0,1.7-0.1,2.2c-3.9,1.6-9,2.4-15.2,2.4h-0.5h-0.9
				c-6.7,0-11.9-1.2-15.6-3.6c0.6-1.9,0.9-4,0.9-6.4v-14.5l-8.8,0.7v13c0,1.9-0.3,3.4-1,4.7c-0.7,1.3-2,2.5-4,3.6s-5.1,2-9.2,2.6
				s-9.3,0.9-15.7,0.9c-6.9,0-12.3-0.6-16.1-1.7c-3.8-1.2-6.3-2.7-7.5-4.5c-1.2-1.8-1.8-4.3-1.8-7.4c0-3.4,0.7-7.7,2-13l-7.9-1.6
				c-2.3,6.7-3.5,12.7-3.5,18c0,3.2,0.5,5.9,1.4,8.2c0.9,2.3,2.5,4.5,4.8,6.5c2.3,2,5.6,3.5,10,4.5c4.4,1,9.9,1.5,16.4,1.5
				c17.4,0,29-2.3,34.7-7c4.6,3.9,11.1,5.9,19.4,5.9h2.4h0.4c8.7,0,16-1.7,21.9-5.2c1.1-3.7,1.7-8.2,1.7-13.6c0-6.3-0.8-12.7-2.3-19
				L265.4,414.9z"/>
			<polygon class="st0" points="261.7,466.3 268.3,471.9 273.9,465.7 267.2,459.8 			"/>
			<polygon class="st0" points="349.6,401.4 342.9,395.4 337.4,401.9 344,407.6 			"/>
			<polygon class="st0" points="336.2,401.6 329.5,395.7 324,402.2 330.6,407.9 			"/>
			<path class="st0" d="M348.2,412.9l-8.5,2c1.8,6.9,2.7,13.8,2.7,20.9c0,1,0,1.7-0.1,2.2c-3.9,1.6-9,2.4-15.2,2.4h-0.5h-2.5
				c-6.9,0-11.2-2.7-13.1-8.2c-0.9-2-2.5-7.3-4.7-16l-8.4,2.5c2.7,10.3,4,17.6,4,21.8c0,3.9-0.6,7.4-1.8,10.7
				c-1.2,3.2-3.3,6-6.3,8.2c-3,2.2-6.7,3.3-11.1,3.3c-1.9,0-3.7-0.2-5.2-0.5l-1,8.6c2.8,0.6,5.5,0.9,8.1,0.9c7.2,0,13-2.3,17.4-7
				c4.3-4.7,6.9-11,7.7-19.1c3,3.4,7.5,5,13.5,5h3.5h0.4c8.7,0,16-1.7,21.9-5.2c1.1-3.7,1.7-8.2,1.7-13.6
				C350.6,425.6,349.8,419.2,348.2,412.9z"/>
		</g>
		<g>
			<polygon class="st1" points="392.9,476 400.4,482.4 406.5,475.2 399,469.1 			"/>
			<polygon class="st1" points="398.8,463.3 391.1,457 384.4,464.5 392.5,471.4 398.6,464.2 406.3,470.8 412.9,463 404.9,456.5 			
				"/>
			<polygon class="st1" points="469.2,401.2 460.3,393.5 452.9,402.1 461.9,409.5 			"/>
			<path class="st1" d="M553.6,416.5c1.7,7.7,2.7,13.9,2.8,18.7c-2.5,1-5.2,1.6-8.1,1.6c-5,0-7.6-2.4-7.6-7.1v-11.3l-11.1,0.8v9.2
				c0,2.8-0.9,4.8-2.8,6.1c-1.9,1.3-4.2,1.9-7.1,1.9c-3.1,0-5.8-0.6-8.1-1.9c0.5-2.7,0.8-4.9,0.9-6.8l0.5-8l-11,0.9l-0.5,6.9
				c-0.3,3.6-1.2,6-2.6,7.3c-1.4,1.3-3.4,1.9-6.2,1.9h-2.6h-0.6c-4.9,0-9.1-0.5-12.6-1.6c0.4-2.3,0.6-4.8,0.6-7.6v-13.2l-11.6,0.9
				v13.6c0,2.6-0.9,4.6-2.6,5.9c-1.7,1.4-5.2,2-10.4,2h-1.5l0,0h-1c-5.8,0-10.4-0.8-14-2.4c0.3-1.2,0.4-2.7,0.4-4.3v-15.7l-11.7,0.9
				v13.7c0,1.4-0.3,2.5-0.8,3.4s-1.6,1.8-3.3,2.7c-1.6,0.9-4.3,1.6-7.9,2s-8.1,0.6-13.6,0.6c-6.5,0-11.6-0.5-15.1-1.5s-5.9-2.3-7-4
				c-1.1-1.7-1.7-4-1.7-7.1s0.5-7,1.6-11.5l-10.6-2.1c-2.4,7-3.6,13.2-3.6,18.5c0,3.4,0.5,6.3,1.4,8.7c0.9,2.5,2.6,4.7,4.9,6.8
				s5.8,3.6,10.3,4.7c4.5,1.1,10.1,1.6,16.8,1.6c16.2,0,27.2-2.1,33.2-6.4c4.3,3.6,10.6,5.4,18.7,5.4h2.9l0,0h2.7
				c7.5,0,13.1-1.5,16.7-4.5c4.1,3,9.6,4.5,16.7,4.5h2.6h1.1c5.1,0,9.4-1.3,12.8-3.8c4.1,2.8,9.2,4.3,15.2,4.3
				c7.2,0,12.4-1.8,15.4-5.4c2.9,3.4,7.3,5,13.2,5s11.6-1.6,17.3-4.8c1.4-4.1,2-9.5,2-16.2c0-4.8-0.7-10.1-2-15.9L553.6,416.5z"/>
			<polygon class="st1" points="579.8,381.5 579.8,450.7 592.1,450.7 592.1,380.4 			"/>
		</g>
	</g>
	<g>
		<g>
			<path class="st1" d="M779.8,474.4c-1.2,0-2.4-0.4-3.4-1.1c-2.5-1.9-3-5.4-1.1-7.9c21.7-29,18.7-70.2-6.9-95.8
				c-25.7-25.7-66.8-28.6-95.8-6.9c-2.5,1.9-6.1,1.4-7.9-1.1c-1.9-2.5-1.4-6.1,1.1-7.9c16.2-12.1,36.2-18,56.4-16.7
				c20.4,1.4,39.7,10.1,54.2,24.6s23.2,33.7,24.6,54.2c1.4,20.2-4.5,40.3-16.6,56.4C783.2,473.6,781.5,474.4,779.8,474.4z"/>
		</g>
		<g>
			<path class="st0" d="M716.4,506.2c-1.9,0-3.8-0.1-5.7-0.2c-20.4-1.4-39.7-10.1-54.2-24.6s-23.2-33.8-24.6-54.2
				c-1.4-20.2,4.6-40.3,16.7-56.4c1.9-2.5,5.4-3,7.9-1.1s3,5.4,1.1,7.9c-21.7,29-18.8,70.2,6.9,95.8c25.6,25.6,66.8,28.6,95.8,6.9
				c2.5-1.9,6.1-1.4,7.9,1.1c1.9,2.5,1.4,6.1-1.1,7.9C752.5,500.3,734.7,506.2,716.4,506.2z"/>
		</g>
		<g>
			
				<linearGradient id="SVGID_1_" gradientUnits="userSpaceOnUse" x1="697.2547" y1="417.5012" x2="739.5083" y2="459.7548" gradientTransform="matrix(1 0 0 -1 0 843.27)">
				<stop  offset="0" style="stop-color:#EE3F5B"/>
				<stop  offset="0.11" style="stop-color:#EA3E5A"/>
				<stop  offset="0.2241" style="stop-color:#DD3C56"/>
				<stop  offset="0.3399" style="stop-color:#C9384F"/>
				<stop  offset="0.4563" style="stop-color:#AC3245"/>
				<stop  offset="0.5" style="stop-color:#9F3041"/>
				<stop  offset="0.5437" style="stop-color:#AC3245"/>
				<stop  offset="0.6601" style="stop-color:#C9384F"/>
				<stop  offset="0.7759" style="stop-color:#DD3C56"/>
				<stop  offset="0.89" style="stop-color:#EA3E5A"/>
				<stop  offset="1" style="stop-color:#EE3F5B"/>
			</linearGradient>
			<path class="st2" d="M701.4,442.1c-1.5,0-2.9-0.6-4-1.7c-5.1-5.1-7.9-12.5-7.6-19.8c0.3-7.6,4.1-15.1,10-20.1
				c4.7-3.9,10.3-6.1,15.2-8.1l0.1-0.1c12.9-5.1,26-10.5,38.8-16c2.9-1.2,6.2,0.1,7.5,2.9c1.2,2.9-0.1,6.2-2.9,7.5
				c-12.9,5.6-26.1,11-39.2,16.2l-0.1,0.1c-4.5,1.8-8.8,3.5-12.1,6.2c-3.6,3-5.8,7.5-6,12c-0.2,4.2,1.4,8.4,4.3,11.3
				c2.2,2.2,2.2,5.8,0,8C704.3,441.6,702.9,442.1,701.4,442.1z"/>
		</g>
		<g>
			
				<linearGradient id="SVGID_2_" gradientUnits="userSpaceOnUse" x1="2297.9695" y1="-1822.2009" x2="2340.2231" y2="-1779.9473" gradientTransform="matrix(-1 0 0 1 3033.5364 2239.2905)">
				<stop  offset="0" style="stop-color:#00B4A4"/>
				<stop  offset="0.1268" style="stop-color:#00B0A0"/>
				<stop  offset="0.2581" style="stop-color:#00A693"/>
				<stop  offset="0.391" style="stop-color:#00947F"/>
				<stop  offset="0.5" style="stop-color:#008068"/>
				<stop  offset="0.609" style="stop-color:#00947F"/>
				<stop  offset="0.7419" style="stop-color:#00A693"/>
				<stop  offset="0.8732" style="stop-color:#00B0A0"/>
				<stop  offset="1" style="stop-color:#00B4A4"/>
			</linearGradient>
			<path class="st3" d="M731.4,400.8c1.5,0,2.9,0.6,4,1.7c5.1,5.1,7.9,12.5,7.6,19.8c-0.3,7.6-4.1,15.1-10,20.1
				c-4.7,3.9-10.3,6.1-15.2,8.1l-0.1,0.1c-12.9,5.1-26,10.5-38.8,16c-2.9,1.2-6.2-0.1-7.5-2.9c-1.2-2.9,0.1-6.2,2.9-7.5
				c12.9-5.6,26.1-11,39.2-16.2l0.1-0.1c4.5-1.8,8.8-3.5,12.1-6.2c3.6-3,5.8-7.5,6-12c0.2-4.2-1.4-8.4-4.3-11.3
				c-2.2-2.2-2.2-5.8,0-8C728.5,401.3,730,400.8,731.4,400.8z"/>
		</g>
		
			<linearGradient id="SVGID_3_" gradientUnits="userSpaceOnUse" x1="2309.4971" y1="-1796.729" x2="2348.4131" y2="-1814.876" gradientTransform="matrix(-1 0 0 1 3033.5364 2239.2905)">
			<stop  offset="0" style="stop-color:#008068"/>
			<stop  offset="3.853798e-003" style="stop-color:#008169"/>
			<stop  offset="9.149731e-002" style="stop-color:#00947F"/>
			<stop  offset="0.1942" style="stop-color:#00A290"/>
			<stop  offset="0.3222" style="stop-color:#00AC9B"/>
			<stop  offset="0.5016" style="stop-color:#00B2A2"/>
			<stop  offset="1" style="stop-color:#00B4A4"/>
		</linearGradient>
		<path class="st4" d="M674.3,466.5c2.9,1.2,6.2-0.1,7.5-2.9c5.6-12.9,11-26.1,16.2-39.2l0.1-0.1c1.8-4.5,3.5-8.8,6.2-12.1
			c3-3.6,7.5-5.8,12-6c4.1-0.2,8.4,1.4,11.3,4.3c2.9,2.9,4.5,7.1,4.3,11.3c-0.2,3.8-1.8,7.6-4.5,10.5c0.5-0.5,1-1,1.4-1.5
			c2.7-3.2,4.4-7.5,6.2-12.1l0.1-0.1c1.4-3.7,2.9-7.4,4.4-11.1c-1.1-1.8-2.4-3.5-3.9-5l0,0l0,0c-4.8-4.8-11.7-7.6-18.7-7.6
			c-0.4,0-0.7,0-1.1,0c-7.6,0.3-15.1,4.1-20.1,10c-3.9,4.7-6.1,10.3-8.1,15.2l-0.1,0.1c-5.1,12.9-10.5,26-16,38.8
			C670.1,461.9,671.5,465.3,674.3,466.5z"/>
		
			<linearGradient id="SVGID_4_" gradientUnits="userSpaceOnUse" x1="708.8307" y1="442.9178" x2="747.7469" y2="424.771" gradientTransform="matrix(1 0 0 -1 0 843.27)">
			<stop  offset="0" style="stop-color:#9F3041"/>
			<stop  offset="5.683780e-002" style="stop-color:#B33448"/>
			<stop  offset="0.1397" style="stop-color:#C9384F"/>
			<stop  offset="0.2375" style="stop-color:#DA3B54"/>
			<stop  offset="0.3586" style="stop-color:#E53D58"/>
			<stop  offset="0.5284" style="stop-color:#EC3F5A"/>
			<stop  offset="1" style="stop-color:#EE3F5B"/>
		</linearGradient>
		<path class="st5" d="M758.5,376.4c-2.9-1.2-6.2,0.1-7.5,2.9c-5.6,12.9-11,26.1-16.2,39.2l-0.1,0.1c-1.8,4.5-3.5,8.8-6.2,12.1
			c-3,3.6-7.5,5.8-12,6c-4.1,0.2-8.4-1.4-11.3-4.3c-2.9-2.9-4.5-7.1-4.3-11.3c0.2-3.8,1.8-7.6,4.5-10.5c-0.5,0.5-1,1-1.4,1.5
			c-2.7,3.2-4.4,7.5-6.2,12.1l-0.1,0.1c-1.4,3.7-2.9,7.4-4.4,11.1c1.1,1.8,2.4,3.5,3.9,5l0,0l0,0c4.8,4.8,11.7,7.6,18.7,7.6
			c0.4,0,0.7,0,1.1,0c7.6-0.3,15.1-4.1,20.1-10c3.9-4.7,6.1-10.3,8.1-15.2l0.1-0.1c5.1-12.9,10.5-26,16-38.8
			C762.7,381,761.4,377.7,758.5,376.4z"/>
	</g>
</g>
</svg>
